<?xml version="1.0" encoding="UTF-8" standalone="no"?><svg xmlns="http://www.w3.org/2000/svg" xmlns:xlink="http://www.w3.org/1999/xlink" contentStyleType="text/css" height="338px" preserveAspectRatio="none" style="width:518px;height:338px;background:#FFFFFF;" version="1.1" viewBox="0 0 518 338" width="518px" zoomAndPan="magnify"><defs/><g><!--MD5=[b8fc76eca9ea9c7d7862e550968e6923]
cluster Single Server Pattern--><g id="cluster_Single Server Pattern"><path d="M8.5,6 L159.5,6 A3.75,3.75 0 0 1 162,8.5 L169,28.4883 L508.5,28.4883 A2.5,2.5 0 0 1 511,30.9883 L511,328.5 A2.5,2.5 0 0 1 508.5,331 L8.5,331 A2.5,2.5 0 0 1 6,328.5 L6,8.5 A2.5,2.5 0 0 1 8.5,6 " fill="none" style="stroke:#000000;stroke-width:1.5;"/><line style="stroke:#000000;stroke-width:1.5;" x1="6" x2="169" y1="28.4883" y2="28.4883"/><text fill="#000000" font-family="sans-serif" font-size="14" font-weight="bold" lengthAdjust="spacing" textLength="150" x="10" y="21.5352">Single Server Pattern</text></g><!--MD5=[e874ee89873f525d6a8c9ede95697c03]
cluster Storage-A--><g id="cluster_Storage-A"><rect fill="none" height="257" rx="2.5" ry="2.5" style="stroke:#181818;stroke-width:1.0;" width="197" x="290" y="50"/><rect fill="none" height="10" style="stroke:#181818;stroke-width:1.0;" width="15" x="467" y="55"/><rect fill="none" height="2" style="stroke:#181818;stroke-width:1.0;" width="4" x="465" y="57"/><rect fill="none" height="2" style="stroke:#181818;stroke-width:1.0;" width="4" x="465" y="61"/><text fill="#000000" font-family="sans-serif" font-size="14" font-weight="bold" lengthAdjust="spacing" textLength="73" x="352" y="76.5352">Storage-A</text></g><!--MD5=[b9de0669a29c7bc934fd916b09c39491]
cluster node--><g id="cluster_node"><rect fill="none" height="258" rx="2.5" ry="2.5" style="stroke:#181818;stroke-width:1.0;" width="150" x="30" y="49"/><rect fill="none" height="10" style="stroke:#181818;stroke-width:1.0;" width="15" x="160" y="54"/><rect fill="none" height="2" style="stroke:#181818;stroke-width:1.0;" width="4" x="158" y="56"/><rect fill="none" height="2" style="stroke:#181818;stroke-width:1.0;" width="4" x="158" y="60"/><text fill="#000000" font-family="sans-serif" font-size="14" font-weight="bold" lengthAdjust="spacing" textLength="35" x="87.5" y="75.5352">node</text></g><!--MD5=[4fb339280774b920f6f630b17a1ffebd]
entity OST3--><g id="elem_OST3"><path d="M414,255.5 C414,245.5 442.5,245.5 442.5,245.5 C442.5,245.5 471,245.5 471,255.5 L471,280.9883 C471,290.9883 442.5,290.9883 442.5,290.9883 C442.5,290.9883 414,290.9883 414,280.9883 L414,255.5 " fill="#F1F1F1" style="stroke:#181818;stroke-width:0.5;"/><path d="M414,255.5 C414,265.5 442.5,265.5 442.5,265.5 C442.5,265.5 471,265.5 471,255.5 " fill="none" style="stroke:#181818;stroke-width:0.5;"/><text fill="#000000" font-family="sans-serif" font-size="14" lengthAdjust="spacing" textLength="37" x="424" y="283.0352">OST3</text></g><!--MD5=[b45ac6e828f190b057189535d8c1e205]
entity OST2--><g id="elem_OST2"><path d="M414,175.5 C414,165.5 442.5,165.5 442.5,165.5 C442.5,165.5 471,165.5 471,175.5 L471,200.9883 C471,210.9883 442.5,210.9883 442.5,210.9883 C442.5,210.9883 414,210.9883 414,200.9883 L414,175.5 " fill="#F1F1F1" style="stroke:#181818;stroke-width:0.5;"/><path d="M414,175.5 C414,185.5 442.5,185.5 442.5,185.5 C442.5,185.5 471,185.5 471,175.5 " fill="none" style="stroke:#181818;stroke-width:0.5;"/><text fill="#000000" font-family="sans-serif" font-size="14" lengthAdjust="spacing" textLength="37" x="424" y="203.0352">OST2</text></g><!--MD5=[598792aac0dabf021d53e38489819ec8]
entity OST1--><g id="elem_OST1"><path d="M414,95.5 C414,85.5 442.5,85.5 442.5,85.5 C442.5,85.5 471,85.5 471,95.5 L471,120.9883 C471,130.9883 442.5,130.9883 442.5,130.9883 C442.5,130.9883 414,130.9883 414,120.9883 L414,95.5 " fill="#F1F1F1" style="stroke:#181818;stroke-width:0.5;"/><path d="M414,95.5 C414,105.5 442.5,105.5 442.5,105.5 C442.5,105.5 471,105.5 471,95.5 " fill="none" style="stroke:#181818;stroke-width:0.5;"/><text fill="#000000" font-family="sans-serif" font-size="14" lengthAdjust="spacing" textLength="37" x="424" y="123.0352">OST1</text></g><!--MD5=[257a5f9077d50df9aeed92fa9342ffd1]
entity OSS--><g id="elem_OSS"><rect fill="#F1F1F1" height="36.4883" rx="35" ry="35" style="stroke:#181818;stroke-width:0.5;" width="47" x="306" y="188"/><text fill="#000000" font-family="sans-serif" font-size="14" lengthAdjust="spacing" textLength="27" x="316" y="211.5352">OSS</text></g><!--MD5=[e5b7da8fa23ec8cac7d321a34f6e9ee1]
entity Application--><g id="elem_Application"><rect fill="#F1F1F1" height="46.4883" rx="2.5" ry="2.5" style="stroke:#181818;stroke-width:0.5;" width="118" x="46" y="84"/><rect fill="#F1F1F1" height="10" style="stroke:#181818;stroke-width:0.5;" width="15" x="144" y="89"/><rect fill="#F1F1F1" height="2" style="stroke:#181818;stroke-width:0.5;" width="4" x="142" y="91"/><rect fill="#F1F1F1" height="2" style="stroke:#181818;stroke-width:0.5;" width="4" x="142" y="95"/><text fill="#000000" font-family="sans-serif" font-size="14" lengthAdjust="spacing" textLength="78" x="61" y="117.5352">Application</text></g><!--MD5=[5427960f0a0d6e728427509f19a12a87]
entity kernel--><g id="elem_kernel"><rect fill="#F1F1F1" height="62.9766" rx="2.5" ry="2.5" style="stroke:#181818;stroke-width:0.5;" width="93" x="58.5" y="227.5"/><rect fill="#F1F1F1" height="10" style="stroke:#181818;stroke-width:0.5;" width="15" x="131.5" y="232.5"/><rect fill="#F1F1F1" height="2" style="stroke:#181818;stroke-width:0.5;" width="4" x="129.5" y="234.5"/><rect fill="#F1F1F1" height="2" style="stroke:#181818;stroke-width:0.5;" width="4" x="129.5" y="238.5"/><text fill="#000000" font-family="sans-serif" font-size="14" lengthAdjust="spacing" textLength="53" x="73.5" y="261.0352">Storage</text><text fill="#000000" font-family="sans-serif" font-size="14" lengthAdjust="spacing" textLength="40" x="80" y="277.5234">Client</text></g><!--MD5=[06507e6011f4c32413363a60400fd648]
link OSS to OST3--><g id="link_OSS_OST3"><path d="M353.23,218.7 C370.74,228.47 395.02,242.04 413.68,252.46 " fill="none" id="OSS-OST3" style="stroke:#181818;stroke-width:1.0;"/></g><!--MD5=[1c7c804a07248cb694f3ee22cebd302a]
link OSS to OST2--><g id="link_OSS_OST2"><path d="M353.23,202.31 C370.74,199.48 395.02,195.54 413.68,192.51 " fill="none" id="OSS-OST2" style="stroke:#181818;stroke-width:1.0;"/></g><!--MD5=[a16c2ee1206a1d7eb064f8576d373fcc]
link OSS to OST1--><g id="link_OSS_OST1"><path d="M351.12,187.8 C369.43,171.63 396.25,147.95 415.92,130.59 " fill="none" id="OSS-OST1" style="stroke:#181818;stroke-width:1.0;"/></g><!--MD5=[9d4bfc14bfcd9cd39586079337125dba]
reverse link kernel to Application--><g id="link_kernel_Application"><path d="M105,221.93 C105,193.38 105,154.78 105,130.39 " fill="none" id="kernel-backto-Application" style="stroke:#181818;stroke-width:1.0;"/><polygon fill="#181818" points="105,227.14,109,218.14,105,222.14,101,218.14,105,227.14" style="stroke:#181818;stroke-width:1.0;"/><text fill="#000000" font-family="sans-serif" font-size="13" lengthAdjust="spacing" textLength="59" x="41" y="160.8184">sequence</text><text fill="#000000" font-family="sans-serif" font-size="13" lengthAdjust="spacing" textLength="13" x="64" y="176.1289">of</text><text fill="#000000" font-family="sans-serif" font-size="13" lengthAdjust="spacing" textLength="47" x="47" y="191.4395">storage</text><text fill="#000000" font-family="sans-serif" font-size="13" lengthAdjust="spacing" textLength="46" x="47.5" y="206.75">chunks</text></g><!--MD5=[0486ed3c661b20d3781a5a19cab8f550]
link kernel to OSS--><g id="link_kernel_OSS"><path d="M151.56,248.15 C196.28,237.5 263.05,221.59 300.48,212.67 " fill="none" id="kernel-to-OSS" style="stroke:#181818;stroke-width:1.0;"/><polygon fill="#181818" points="305.78,211.41,296.098,209.6046,300.9161,212.5687,297.952,217.3868,305.78,211.41" style="stroke:#181818;stroke-width:1.0;"/><text fill="#000000" font-family="sans-serif" font-size="13" lengthAdjust="spacing" textLength="68" x="201" y="187.5684">LAN traffic</text><text fill="#000000" font-family="sans-serif" font-size="13" lengthAdjust="spacing" textLength="76" x="197" y="202.8789">sequence of</text><text fill="#000000" font-family="sans-serif" font-size="13" lengthAdjust="spacing" textLength="42" x="214" y="218.1895">blocks</text></g><!--MD5=[76e233f0fee55c4e7e0fba15f34b7fe8]
@startuml
package "Single Server Pattern" {
  skinparam DefaultTextAlignment center
  left to right direction

    component "Storage-A" {
        database OST3
        database OST2  
        database OST1 
        storage OSS
        OSS - - OST3
        OSS - - OST2
        OSS - - OST1
    }
    
    component node {
        component Application 
        component "Storage\nClient" as kernel
        kernel <- Application : sequence\nof\nstorage\nchunks
    }
    
    kernel - -> OSS: LAN traffic\nsequence of\nblocks
    
}
@enduml

PlantUML version 1.2022.8(Sun Sep 25 10:00:33 BST 2022)
(GPL source distribution)
Java Runtime: OpenJDK Runtime Environment
JVM: OpenJDK 64-Bit Server VM
Default Encoding: UTF-8
Language: en
Country: GB
--></g></svg>