<svg xmlns="http://www.w3.org/2000/svg" xmlns:xlink="http://www.w3.org/1999/xlink" contentStyleType="text/css" data-diagram-type="CLASS" height="1206px" preserveAspectRatio="none" style="width:1842px;height:1206px;background:#FFFFFF;" version="1.1" viewBox="0 0 1842 1206" width="1842px" zoomAndPan="magnify"><defs/><g><!--cluster activestorage--><g class="cluster" data-entity="activestorage" data-source-line="12" data-uid="ent0004" id="cluster_activestorage"><rect fill="none" height="1193.29" rx="2.5" ry="2.5" style="stroke:#000000;stroke-width:1.5;" width="1829" x="7" y="7"/><text fill="#000000" font-family="sans-serif" font-size="14" font-weight="bold" lengthAdjust="spacing" textLength="96.9814" x="873.0093" y="22.5352">activestorage</text></g><!--cluster core--><g class="cluster" data-entity="core" data-source-line="10" data-uid="ent0002" id="cluster_core"><rect fill="none" height="1126.29" rx="2.5" ry="2.5" style="stroke:#000000;stroke-width:1.5;" width="1781" x="31" y="50"/><text fill="#000000" font-family="sans-serif" font-size="14" font-weight="bold" lengthAdjust="spacing" textLength="30.96" x="906.02" y="65.5352">core</text></g><!--class SelectionRequest--><g class="entity" data-entity="SelectionRequest" data-source-line="12" data-uid="ent0003" id="entity_SelectionRequest"><rect fill="#F1F1F1" height="188.5273" rx="2.5" ry="2.5" style="stroke:#181818;stroke-width:0.5;" width="208.6973" x="1146.65" y="755.21"/><ellipse cx="1185.8604" cy="775.5205" fill="#ADD1B2" rx="11" ry="11" style="stroke:#181818;stroke-width:1;"/><path d="M1188.3335,781.6636 Q1187.7524,781.9624 1187.1133,782.1119 Q1186.4741,782.2613 1185.7686,782.2613 Q1183.2617,782.2613 1181.9419,780.6094 Q1180.6221,778.9576 1180.6221,775.8365 Q1180.6221,772.7071 1181.9419,771.0552 Q1183.2617,769.4034 1185.7686,769.4034 Q1186.4741,769.4034 1187.1216,769.5528 Q1187.769,769.7022 1188.3335,770.001 L1188.3335,772.7237 Q1187.7026,772.1426 1187.1091,771.8728 Q1186.5156,771.6031 1185.8848,771.6031 Q1184.54,771.6031 1183.8552,772.6697 Q1183.1704,773.7364 1183.1704,775.8365 Q1183.1704,777.9283 1183.8552,778.9949 Q1184.54,780.0616 1185.8848,780.0616 Q1186.5156,780.0616 1187.1091,779.7918 Q1187.7026,779.522 1188.3335,778.941 Z " fill="#000000"/><text fill="#000000" font-family="sans-serif" font-size="12" font-style="italic" lengthAdjust="spacing" textLength="66.3457" x="1233.5158" y="771.8116">&#171;dataclass&#187;</text><text fill="#000000" font-family="sans-serif" font-size="14" font-weight="bold" lengthAdjust="spacing" textLength="122.8965" x="1205.2404" y="787.878">SelectionRequest</text><line style="stroke:#181818;stroke-width:0.5;" x1="1147.65" x2="1354.3473" y1="795.8311" y2="795.8311"/><line style="stroke:#181818;stroke-width:1;" x1="1147.65" x2="1354.3473" y1="803.8311" y2="803.8311"/><text fill="#000000" font-family="sans-serif" font-size="14" lengthAdjust="spacing" textLength="60.9834" x="1152.65" y="821.3663">+uri : str</text><text fill="#000000" font-family="sans-serif" font-size="14" lengthAdjust="spacing" textLength="95.6621" x="1152.65" y="837.8545">+variable : str</text><text fill="#000000" font-family="sans-serif" font-size="14" lengthAdjust="spacing" textLength="119.5264" x="1152.65" y="854.3428">+selection : tuple</text><text fill="#000000" font-family="sans-serif" font-size="14" lengthAdjust="spacing" textLength="94.7256" x="1152.65" y="870.8311">+method : str</text><text fill="#000000" font-family="sans-serif" font-size="14" lengthAdjust="spacing" textLength="86.502" x="1152.65" y="887.3194">+axis : tuple</text><text fill="#000000" font-family="sans-serif" font-size="14" lengthAdjust="spacing" textLength="196.6973" x="1152.65" y="903.8077">+missing : MissingAttributes</text><text fill="#000000" font-family="sans-serif" font-size="14" lengthAdjust="spacing" textLength="146.0771" x="1152.65" y="920.2959">+compressor : object</text><text fill="#000000" font-family="sans-serif" font-size="14" lengthAdjust="spacing" textLength="84.0273" x="1152.65" y="936.7842">+filters : list</text></g><!--class ChunkRequest--><g class="entity" data-entity="ChunkRequest" data-source-line="24" data-uid="ent0005" id="entity_ChunkRequest"><rect fill="#F1F1F1" height="254.4805" rx="2.5" ry="2.5" style="stroke:#181818;stroke-width:0.5;" width="208.6973" x="1390.65" y="722.24"/><ellipse cx="1438.4776" cy="742.5505" fill="#ADD1B2" rx="11" ry="11" style="stroke:#181818;stroke-width:1;"/><path d="M1440.9508,748.6936 Q1440.3697,748.9924 1439.7306,749.1419 Q1439.0914,749.2913 1438.3858,749.2913 Q1435.879,749.2913 1434.5592,747.6394 Q1433.2394,745.9876 1433.2394,742.8665 Q1433.2394,739.7371 1434.5592,738.0852 Q1435.879,736.4334 1438.3858,736.4334 Q1439.0914,736.4334 1439.7389,736.5828 Q1440.3863,736.7322 1440.9508,737.031 L1440.9508,739.7537 Q1440.3199,739.1726 1439.7264,738.9028 Q1439.1329,738.6331 1438.5021,738.6331 Q1437.1573,738.6331 1436.4725,739.6997 Q1435.7877,740.7664 1435.7877,742.8665 Q1435.7877,744.9583 1436.4725,746.0249 Q1437.1573,747.0916 1438.5021,747.0916 Q1439.1329,747.0916 1439.7264,746.8218 Q1440.3199,746.552 1440.9508,745.971 Z " fill="#000000"/><text fill="#000000" font-family="sans-serif" font-size="12" font-style="italic" lengthAdjust="spacing" textLength="66.3457" x="1478.0758" y="738.8416">&#171;dataclass&#187;</text><text fill="#000000" font-family="sans-serif" font-size="14" font-weight="bold" lengthAdjust="spacing" textLength="104.542" x="1458.9776" y="754.908">ChunkRequest</text><line style="stroke:#181818;stroke-width:0.5;" x1="1391.65" x2="1598.3473" y1="762.8611" y2="762.8611"/><line style="stroke:#181818;stroke-width:1;" x1="1391.65" x2="1598.3473" y1="770.8611" y2="770.8611"/><text fill="#000000" font-family="sans-serif" font-size="14" lengthAdjust="spacing" textLength="60.9834" x="1396.65" y="788.3963">+uri : str</text><text fill="#000000" font-family="sans-serif" font-size="14" lengthAdjust="spacing" textLength="81.457" x="1396.65" y="804.8845">+offset : int</text><text fill="#000000" font-family="sans-serif" font-size="14" lengthAdjust="spacing" textLength="69.3984" x="1396.65" y="821.3728">+size : int</text><text fill="#000000" font-family="sans-serif" font-size="14" lengthAdjust="spacing" textLength="80.4932" x="1396.65" y="837.8611">+dtype : str</text><text fill="#000000" font-family="sans-serif" font-size="14" lengthAdjust="spacing" textLength="107.5566" x="1396.65" y="854.3494">+chunks : tuple</text><text fill="#000000" font-family="sans-serif" font-size="14" lengthAdjust="spacing" textLength="79.1875" x="1396.65" y="870.8377">+order : str</text><text fill="#000000" font-family="sans-serif" font-size="14" lengthAdjust="spacing" textLength="146.0771" x="1396.65" y="887.3259">+compressor : object</text><text fill="#000000" font-family="sans-serif" font-size="14" lengthAdjust="spacing" textLength="84.0273" x="1396.65" y="903.8142">+filters : list</text><text fill="#000000" font-family="sans-serif" font-size="14" lengthAdjust="spacing" textLength="167.9453" x="1396.65" y="920.3025">+chunk_selection : tuple</text><text fill="#000000" font-family="sans-serif" font-size="14" lengthAdjust="spacing" textLength="196.6973" x="1396.65" y="936.7908">+missing : MissingAttributes</text><text fill="#000000" font-family="sans-serif" font-size="14" lengthAdjust="spacing" textLength="94.7256" x="1396.65" y="953.2791">+method : str</text><text fill="#000000" font-family="sans-serif" font-size="14" lengthAdjust="spacing" textLength="86.502" x="1396.65" y="969.7673">+axis : tuple</text></g><!--class MissingAttributes--><g class="entity" data-entity="MissingAttributes" data-source-line="40" data-uid="ent0006" id="entity_MissingAttributes"><rect fill="#F1F1F1" height="122.5742" rx="2.5" ry="2.5" style="stroke:#181818;stroke-width:0.5;" width="160.9121" x="1170.54" y="1037.72"/><ellipse cx="1185.54" cy="1058.0305" fill="#ADD1B2" rx="11" ry="11" style="stroke:#181818;stroke-width:1;"/><path d="M1188.0131,1064.1736 Q1187.4321,1064.4724 1186.7929,1064.6219 Q1186.1538,1064.7713 1185.4482,1064.7713 Q1182.9414,1064.7713 1181.6215,1063.1194 Q1180.3017,1061.4676 1180.3017,1058.3465 Q1180.3017,1055.2171 1181.6215,1053.5652 Q1182.9414,1051.9134 1185.4482,1051.9134 Q1186.1538,1051.9134 1186.8012,1052.0628 Q1187.4487,1052.2122 1188.0131,1052.511 L1188.0131,1055.2337 Q1187.3823,1054.6526 1186.7888,1054.3828 Q1186.1953,1054.1131 1185.5644,1054.1131 Q1184.2197,1054.1131 1183.5349,1055.1797 Q1182.8501,1056.2464 1182.8501,1058.3465 Q1182.8501,1060.4383 1183.5349,1061.5049 Q1184.2197,1062.5716 1185.5644,1062.5716 Q1186.1953,1062.5716 1186.7888,1062.3018 Q1187.3823,1062.032 1188.0131,1061.451 Z " fill="#000000"/><text fill="#000000" font-family="sans-serif" font-size="12" font-style="italic" lengthAdjust="spacing" textLength="66.3457" x="1230.8232" y="1054.3216">&#171;dataclass&#187;</text><text fill="#000000" font-family="sans-serif" font-size="14" font-weight="bold" lengthAdjust="spacing" textLength="128.9121" x="1199.54" y="1070.388">MissingAttributes</text><line style="stroke:#181818;stroke-width:0.5;" x1="1171.54" x2="1330.4521" y1="1078.3411" y2="1078.3411"/><line style="stroke:#181818;stroke-width:1;" x1="1171.54" x2="1330.4521" y1="1086.3411" y2="1086.3411"/><text fill="#000000" font-family="sans-serif" font-size="14" lengthAdjust="spacing" textLength="70.9297" x="1176.54" y="1103.8763">+fill_value</text><text fill="#000000" font-family="sans-serif" font-size="14" lengthAdjust="spacing" textLength="106.4971" x="1176.54" y="1120.3645">+missing_value</text><text fill="#000000" font-family="sans-serif" font-size="14" lengthAdjust="spacing" textLength="75.8174" x="1176.54" y="1136.8528">+valid_min</text><text fill="#000000" font-family="sans-serif" font-size="14" lengthAdjust="spacing" textLength="79.3994" x="1176.54" y="1153.3411">+valid_max</text></g><!--class ChunkMetadata--><g class="entity" data-entity="ChunkMetadata" data-source-line="48" data-uid="ent0007" id="entity_ChunkMetadata"><rect fill="#F1F1F1" height="172.0391" rx="2.5" ry="2.5" style="stroke:#181818;stroke-width:0.5;" width="144.6426" x="476.68" y="763.46"/><ellipse cx="491.68" cy="783.7705" fill="#ADD1B2" rx="11" ry="11" style="stroke:#181818;stroke-width:1;"/><path d="M494.1531,789.9136 Q493.5721,790.2124 492.9329,790.3619 Q492.2938,790.5113 491.5882,790.5113 Q489.0814,790.5113 487.7615,788.8594 Q486.4417,787.2076 486.4417,784.0865 Q486.4417,780.9571 487.7615,779.3052 Q489.0814,777.6534 491.5882,777.6534 Q492.2938,777.6534 492.9412,777.8028 Q493.5887,777.9522 494.1531,778.251 L494.1531,780.9737 Q493.5223,780.3926 492.9288,780.1228 Q492.3353,779.8531 491.7044,779.8531 Q490.3597,779.8531 489.6749,780.9197 Q488.9901,781.9864 488.9901,784.0865 Q488.9901,786.1783 489.6749,787.2449 Q490.3597,788.3116 491.7044,788.3116 Q492.3353,788.3116 492.9288,788.0418 Q493.5223,787.772 494.1531,787.191 Z " fill="#000000"/><text fill="#000000" font-family="sans-serif" font-size="12" font-style="italic" lengthAdjust="spacing" textLength="66.3457" x="528.8284" y="780.0616">&#171;dataclass&#187;</text><text fill="#000000" font-family="sans-serif" font-size="14" font-weight="bold" lengthAdjust="spacing" textLength="112.6426" x="505.68" y="796.128">ChunkMetadata</text><line style="stroke:#181818;stroke-width:0.5;" x1="477.68" x2="620.3226" y1="804.0811" y2="804.0811"/><line style="stroke:#181818;stroke-width:1;" x1="477.68" x2="620.3226" y1="812.0811" y2="812.0811"/><text fill="#000000" font-family="sans-serif" font-size="14" lengthAdjust="spacing" textLength="49.1025" x="482.68" y="829.6163">+dtype</text><text fill="#000000" font-family="sans-serif" font-size="14" lengthAdjust="spacing" textLength="99.1689" x="482.68" y="846.1045">+shape : tuple</text><text fill="#000000" font-family="sans-serif" font-size="14" lengthAdjust="spacing" textLength="107.5566" x="482.68" y="862.5928">+chunks : tuple</text><text fill="#000000" font-family="sans-serif" font-size="14" lengthAdjust="spacing" textLength="90.9111" x="482.68" y="879.0811">+compressor</text><text fill="#000000" font-family="sans-serif" font-size="14" lengthAdjust="spacing" textLength="84.0273" x="482.68" y="895.5694">+filters : list</text><text fill="#000000" font-family="sans-serif" font-size="14" lengthAdjust="spacing" textLength="79.1875" x="482.68" y="912.0577">+order : str</text><text fill="#000000" font-family="sans-serif" font-size="14" lengthAdjust="spacing" textLength="100.8506" x="482.68" y="928.5459">+filename : str</text></g><!--class ChunkResult--><g class="entity" data-entity="ChunkResult" data-source-line="59" data-uid="ent0008" id="entity_ChunkResult"><rect fill="#F1F1F1" height="106.0859" rx="2.5" ry="2.5" style="stroke:#181818;stroke-width:0.5;" width="161.0508" x="1634.47" y="796.43"/><ellipse cx="1666.316" cy="816.7405" fill="#ADD1B2" rx="11" ry="11" style="stroke:#181818;stroke-width:1;"/><path d="M1668.7891,822.8836 Q1668.2081,823.1824 1667.5689,823.3319 Q1666.9298,823.4813 1666.2242,823.4813 Q1663.7174,823.4813 1662.3975,821.8294 Q1661.0777,820.1776 1661.0777,817.0565 Q1661.0777,813.9271 1662.3975,812.2752 Q1663.7174,810.6234 1666.2242,810.6234 Q1666.9298,810.6234 1667.5772,810.7728 Q1668.2247,810.9222 1668.7891,811.221 L1668.7891,813.9437 Q1668.1583,813.3626 1667.5648,813.0928 Q1666.9713,812.8231 1666.3404,812.8231 Q1664.9957,812.8231 1664.3109,813.8897 Q1663.6261,814.9564 1663.6261,817.0565 Q1663.6261,819.1483 1664.3109,820.2149 Q1664.9957,821.2816 1666.3404,821.2816 Q1666.9713,821.2816 1667.5648,821.0118 Q1668.1583,820.742 1668.7891,820.161 Z " fill="#000000"/><text fill="#000000" font-family="sans-serif" font-size="12" font-style="italic" lengthAdjust="spacing" textLength="66.3457" x="1696.6943" y="813.0316">&#171;dataclass&#187;</text><text fill="#000000" font-family="sans-serif" font-size="14" font-weight="bold" lengthAdjust="spacing" textLength="91.6152" x="1684.0596" y="829.098">ChunkResult</text><line style="stroke:#181818;stroke-width:0.5;" x1="1635.47" x2="1794.5208" y1="837.0511" y2="837.0511"/><line style="stroke:#181818;stroke-width:1;" x1="1635.47" x2="1794.5208" y1="845.0511" y2="845.0511"/><text fill="#000000" font-family="sans-serif" font-size="14" lengthAdjust="spacing" textLength="135.3242" x="1640.47" y="862.5863">+data : np.ma.array</text><text fill="#000000" font-family="sans-serif" font-size="14" lengthAdjust="spacing" textLength="80.7734" x="1640.47" y="879.0745">+count : int</text><text fill="#000000" font-family="sans-serif" font-size="14" lengthAdjust="spacing" textLength="149.0508" x="1640.47" y="895.5628">+out_selection : tuple</text></g><!--class SelectionResult--><g class="entity" data-entity="SelectionResult" data-source-line="66" data-uid="ent0009" id="entity_SelectionResult"><rect fill="#F1F1F1" height="89.5977" rx="2.5" ry="2.5" style="stroke:#181818;stroke-width:0.5;" width="186.6787" x="924.66" y="804.68"/><ellipse cx="959.779" cy="824.9905" fill="#ADD1B2" rx="11" ry="11" style="stroke:#181818;stroke-width:1;"/><path d="M962.2522,831.1336 Q961.6711,831.4324 961.032,831.5819 Q960.3928,831.7313 959.6872,831.7313 Q957.1804,831.7313 955.8606,830.0794 Q954.5408,828.4276 954.5408,825.3065 Q954.5408,822.1771 955.8606,820.5252 Q957.1804,818.8734 959.6872,818.8734 Q960.3928,818.8734 961.0403,819.0228 Q961.6877,819.1722 962.2522,819.471 L962.2522,822.1937 Q961.6213,821.6126 961.0278,821.3428 Q960.4343,821.0731 959.8035,821.0731 Q958.4587,821.0731 957.7739,822.1397 Q957.0891,823.2064 957.0891,825.3065 Q957.0891,827.3983 957.7739,828.4649 Q958.4587,829.5316 959.8035,829.5316 Q960.4343,829.5316 961.0278,829.2618 Q961.6213,828.992 962.2522,828.411 Z " fill="#000000"/><text fill="#000000" font-family="sans-serif" font-size="12" font-style="italic" lengthAdjust="spacing" textLength="66.3457" x="1000.062" y="821.2816">&#171;dataclass&#187;</text><text fill="#000000" font-family="sans-serif" font-size="14" font-weight="bold" lengthAdjust="spacing" textLength="109.9697" x="978.2499" y="837.348">SelectionResult</text><line style="stroke:#181818;stroke-width:0.5;" x1="925.66" x2="1110.3387" y1="845.3011" y2="845.3011"/><line style="stroke:#181818;stroke-width:1;" x1="925.66" x2="1110.3387" y1="853.3011" y2="853.3011"/><text fill="#000000" font-family="sans-serif" font-size="14" lengthAdjust="spacing" textLength="174.6787" x="930.66" y="870.8363">+data : np.ma.array | dict</text><text fill="#000000" font-family="sans-serif" font-size="14" lengthAdjust="spacing" textLength="51.0781" x="930.66" y="887.3245">+n : int</text></g><!--class StorageFormat--><g class="entity" data-entity="StorageFormat" data-source-line="72" data-uid="ent0010" id="entity_StorageFormat"><rect fill="#F1F1F1" height="146.9297" rx="2.5" ry="2.5" style="stroke:#181818;stroke-width:0.5;" width="319.2207" x="669.39" y="498.31"/><ellipse cx="772.0145" cy="514.31" fill="#A9DCDF" rx="11" ry="11" style="stroke:#181818;stroke-width:1;"/><path d="M771.8778,509.6581 L770.724,514.7299 L773.0399,514.7299 Z M770.3837,507.4169 L773.3802,507.4169 L776.7254,519.81 L774.2767,519.81 L773.513,516.747 L770.2342,516.747 L769.4872,519.81 L767.0384,519.81 Z " fill="#000000"/><text fill="#000000" font-family="sans-serif" font-size="14" font-style="italic" font-weight="bold" lengthAdjust="spacing" textLength="105.4717" x="792.5145" y="519.601">StorageFormat</text><line style="stroke:#181818;stroke-width:0.5;" x1="670.39" x2="987.6107" y1="530.31" y2="530.31"/><line style="stroke:#181818;stroke-width:1;" x1="670.39" x2="987.6107" y1="538.31" y2="538.31"/><text fill="#000000" font-family="sans-serif" font-size="14" font-style="italic" lengthAdjust="spacing" textLength="190.5381" x="675.39" y="555.8452">+open(uri, storage_options)</text><text fill="#000000" font-family="sans-serif" font-size="14" font-style="italic" lengthAdjust="spacing" textLength="201.6807" x="675.39" y="572.3334">+get_variable(ncvar) : dataset</text><text fill="#000000" font-family="sans-serif" font-size="14" font-style="italic" lengthAdjust="spacing" textLength="307.2207" x="675.39" y="588.8217">+get_missing_attributes() : MissingAttributes</text><text fill="#000000" font-family="sans-serif" font-size="14" font-style="italic" lengthAdjust="spacing" textLength="225.7363" x="675.39" y="605.31">+get_indexer(selection) : indexer</text><text fill="#000000" font-family="sans-serif" font-size="14" font-style="italic" lengthAdjust="spacing" textLength="280.3281" x="675.39" y="621.7983">+get_chunk_metadata() : ChunkMetadata</text><text fill="#000000" font-family="sans-serif" font-size="14" font-style="italic" lengthAdjust="spacing" textLength="54.9883" x="675.39" y="638.2866">+close()</text></g><!--class StorageBackend--><g class="entity" data-entity="StorageBackend" data-source-line="82" data-uid="ent0011" id="entity_StorageBackend"><rect fill="#F1F1F1" height="146.9297" rx="2.5" ry="2.5" style="stroke:#181818;stroke-width:0.5;" width="437.0518" x="1358.47" y="498.31"/><ellipse cx="1515.406" cy="514.31" fill="#A9DCDF" rx="11" ry="11" style="stroke:#181818;stroke-width:1;"/><path d="M1515.2693,509.6581 L1514.1155,514.7299 L1516.4314,514.7299 Z M1513.7752,507.4169 L1516.7718,507.4169 L1520.117,519.81 L1517.6682,519.81 L1516.9046,516.747 L1513.6258,516.747 L1512.8787,519.81 L1510.43,519.81 Z " fill="#000000"/><text fill="#000000" font-family="sans-serif" font-size="14" font-style="italic" font-weight="bold" lengthAdjust="spacing" textLength="114.6797" x="1535.906" y="519.601">StorageBackend</text><line style="stroke:#181818;stroke-width:0.5;" x1="1359.47" x2="1794.5218" y1="530.31" y2="530.31"/><text fill="#000000" font-family="sans-serif" font-size="14" lengthAdjust="spacing" textLength="180.5576" x="1364.47" y="547.8452">+supported_methods : set</text><text fill="#000000" font-family="sans-serif" font-size="14" lengthAdjust="spacing" textLength="274.668" x="1364.47" y="564.3334">+execution_strategy : ExecutionStrategy</text><line style="stroke:#181818;stroke-width:1;" x1="1359.47" x2="1794.5218" y1="571.2866" y2="571.2866"/><text fill="#000000" font-family="sans-serif" font-size="14" lengthAdjust="spacing" textLength="99.5449" x="1364.47" y="588.8217">+get_session()</text><text fill="#000000" font-family="sans-serif" font-size="14" lengthAdjust="spacing" textLength="163.0781" x="1364.47" y="605.31">+close_session(session)</text><text fill="#000000" font-family="sans-serif" font-size="14" font-style="italic" lengthAdjust="spacing" textLength="371.957" x="1364.47" y="621.7983">+reduce_chunk(request: ChunkRequest) : ChunkResult</text><text fill="#000000" font-family="sans-serif" font-size="14" lengthAdjust="spacing" textLength="425.0518" x="1364.47" y="638.2866">+reduce_selection(request: SelectionRequest) : SelectionResult</text></g><!--class ExecutionStrategy--><g class="entity" data-entity="ExecutionStrategy" data-source-line="92" data-uid="ent0012" id="entity_ExecutionStrategy"><rect fill="#F1F1F1" height="113.9531" rx="2.5" ry="2.5" style="stroke:#181818;stroke-width:0.5;" width="234.2705" x="655.86" y="792.5"/><ellipse cx="704.0294" cy="808.5" fill="#A9DCDF" rx="11" ry="11" style="stroke:#181818;stroke-width:1;"/><path d="M703.8927,803.8481 L702.7389,808.9199 L705.0548,808.9199 Z M702.3986,801.6069 L705.3952,801.6069 L708.7404,814 L706.2916,814 L705.528,810.937 L702.2492,810.937 L701.5021,814 L699.0534,814 Z " fill="#000000"/><text fill="#000000" font-family="sans-serif" font-size="14" font-style="italic" font-weight="bold" lengthAdjust="spacing" textLength="129.4316" x="724.5294" y="813.791">ExecutionStrategy</text><line style="stroke:#181818;stroke-width:0.5;" x1="656.86" x2="889.1305" y1="824.5" y2="824.5"/><line style="stroke:#181818;stroke-width:0.5;" x1="656.86" x2="889.1305" y1="832.5" y2="832.5"/><text fill="#000000" font-family="sans-serif" font-size="14" font-style="italic" lengthAdjust="spacing" textLength="189.793" x="661.86" y="850.0352">+execute(backend, session,</text><text fill="#000000" font-family="sans-serif" font-size="14" font-style="italic" lengthAdjust="spacing" textLength="176.5176" x="670.7194" y="866.5234">chunk_metadata, indexer,</text><text fill="#000000" font-family="sans-serif" font-size="14" font-style="italic" lengthAdjust="spacing" textLength="118.3506" x="670.7194" y="883.0117">missing, method,</text><text fill="#000000" font-family="sans-serif" font-size="14" font-style="italic" lengthAdjust="spacing" textLength="213.4111" x="670.7194" y="899.5">need_counts, axis) : array | dict</text></g><!--class SelectBackend--><g class="entity" data-entity="SelectBackend" data-source-line="96" data-uid="ent0013" id="entity_SelectBackend"><rect fill="#F1F1F1" height="89.5977" rx="2.5" ry="2.5" style="stroke:#181818;stroke-width:0.5;" width="322.4111" x="46.79" y="526.97"/><ellipse cx="61.79" cy="547.2805" fill="#ADD1B2" rx="11" ry="11" style="stroke:#181818;stroke-width:1;"/><path d="M64.2631,553.4236 Q63.6821,553.7224 63.0429,553.8719 Q62.4038,554.0213 61.6982,554.0213 Q59.1914,554.0213 57.8715,552.3694 Q56.5517,550.7176 56.5517,547.5965 Q56.5517,544.4671 57.8715,542.8152 Q59.1914,541.1634 61.6982,541.1634 Q62.4038,541.1634 63.0512,541.3128 Q63.6987,541.4622 64.2631,541.761 L64.2631,544.4837 Q63.6323,543.9026 63.0388,543.6328 Q62.4453,543.3631 61.8144,543.3631 Q60.4697,543.3631 59.7849,544.4297 Q59.1001,545.4964 59.1001,547.5965 Q59.1001,549.6883 59.7849,550.7549 Q60.4697,551.8216 61.8144,551.8216 Q62.4453,551.8216 63.0388,551.5518 Q63.6323,551.282 64.2631,550.701 Z " fill="#000000"/><text fill="#000000" font-family="sans-serif" font-size="12" font-style="italic" lengthAdjust="spacing" textLength="60.8027" x="190.5942" y="543.5716">&#171;function&#187;</text><text fill="#000000" font-family="sans-serif" font-size="14" font-weight="bold" lengthAdjust="spacing" textLength="290.4111" x="75.79" y="559.638">_select_backend(interface_type, version)</text><line style="stroke:#181818;stroke-width:0.5;" x1="47.79" x2="368.2011" y1="567.5911" y2="567.5911"/><text fill="#000000" font-family="sans-serif" font-size="14" lengthAdjust="spacing" textLength="226.6523" x="52.79" y="585.1262">Returns StorageBackend subclass</text><text fill="#000000" font-family="sans-serif" font-size="14" lengthAdjust="spacing" textLength="150.5957" x="52.79" y="601.6145">from _BACKENDS dict.</text><line style="stroke:#181818;stroke-width:0.5;" x1="47.79" x2="368.2011" y1="608.5677" y2="608.5677"/></g><!--class SelectFormat--><g class="entity" data-entity="SelectFormat" data-source-line="101" data-uid="ent0014" id="entity_SelectFormat"><rect fill="#F1F1F1" height="89.5977" rx="2.5" ry="2.5" style="stroke:#181818;stroke-width:0.5;" width="230.0869" x="403.96" y="526.97"/><ellipse cx="432.4222" cy="547.2805" fill="#ADD1B2" rx="11" ry="11" style="stroke:#181818;stroke-width:1;"/><path d="M434.8954,553.4236 Q434.3143,553.7224 433.6751,553.8719 Q433.036,554.0213 432.3304,554.0213 Q429.8236,554.0213 428.5037,552.3694 Q427.1839,550.7176 427.1839,547.5965 Q427.1839,544.4671 428.5037,542.8152 Q429.8236,541.1634 432.3304,541.1634 Q433.036,541.1634 433.6834,541.3128 Q434.3309,541.4622 434.8954,541.761 L434.8954,544.4837 Q434.2645,543.9026 433.671,543.6328 Q433.0775,543.3631 432.4466,543.3631 Q431.1019,543.3631 430.4171,544.4297 Q429.7323,545.4964 429.7323,547.5965 Q429.7323,549.6883 430.4171,550.7549 Q431.1019,551.8216 432.4466,551.8216 Q433.0775,551.8216 433.671,551.5518 Q434.2645,551.282 434.8954,550.701 Z " fill="#000000"/><text fill="#000000" font-family="sans-serif" font-size="12" font-style="italic" lengthAdjust="spacing" textLength="60.8027" x="503.0979" y="543.5716">&#171;function&#187;</text><text fill="#000000" font-family="sans-serif" font-size="14" font-weight="bold" lengthAdjust="spacing" textLength="168.1709" x="449.4138" y="559.638">_select_format(dataset)</text><line style="stroke:#181818;stroke-width:0.5;" x1="404.96" x2="633.0469" y1="567.5911" y2="567.5911"/><text fill="#000000" font-family="sans-serif" font-size="14" lengthAdjust="spacing" textLength="218.0869" x="409.96" y="585.1262">Returns StorageFormat subclass</text><text fill="#000000" font-family="sans-serif" font-size="14" lengthAdjust="spacing" textLength="143.4453" x="409.96" y="601.6145">from _FORMATS dict.</text><line style="stroke:#181818;stroke-width:0.5;" x1="404.96" x2="633.0469" y1="608.5677" y2="608.5677"/></g><!--class BackendRegistry--><g class="entity" data-entity="BackendRegistry" data-source-line="106" data-uid="ent0015" id="entity_BackendRegistry"><rect fill="#F1F1F1" height="113.9531" rx="2.5" ry="2.5" style="stroke:#181818;stroke-width:0.5;" width="225.3018" x="95.35" y="196.18"/><ellipse cx="161.5971" cy="212.18" fill="#EB937F" rx="11" ry="11" style="stroke:#181818;stroke-width:1;"/><path d="M165.2113,218.68 L157.4916,218.68 L157.4916,206.2869 L165.2113,206.2869 L165.2113,208.4451 L159.9403,208.4451 L159.9403,211.118 L164.7133,211.118 L164.7133,213.2762 L159.9403,213.2762 L159.9403,216.5218 L165.2113,216.5218 Z " fill="#000000"/><text fill="#000000" font-family="sans-serif" font-size="14" font-weight="bold" lengthAdjust="spacing" textLength="84.3076" x="182.0971" y="217.471">_BACKENDS</text><line style="stroke:#181818;stroke-width:0.5;" x1="96.35" x2="319.6518" y1="228.18" y2="228.18"/><line style="stroke:#181818;stroke-width:0.5;" x1="96.35" x2="319.6518" y1="236.18" y2="236.18"/><text fill="#000000" font-family="sans-serif" font-size="14" lengthAdjust="spacing" textLength="205.4404" x="101.35" y="253.7152">(None, 1/2)  =&gt; LocalBackend</text><text fill="#000000" font-family="sans-serif" font-size="14" lengthAdjust="spacing" textLength="177.8369" x="101.35" y="270.2034">("s3", 1/2)  =&gt; S3Backend</text><text fill="#000000" font-family="sans-serif" font-size="14" lengthAdjust="spacing" textLength="196.6494" x="101.35" y="286.6917">("https", 2) =&gt; HttpsBackend</text><text fill="#000000" font-family="sans-serif" font-size="14" lengthAdjust="spacing" textLength="213.3018" x="101.35" y="303.18">("p5rem", *) =&gt; P5RemBackend</text></g><!--class FormatRegistry--><g class="entity" data-entity="FormatRegistry" data-source-line="113" data-uid="ent0016" id="entity_FormatRegistry"><rect fill="#F1F1F1" height="146.9297" rx="2.5" ry="2.5" style="stroke:#181818;stroke-width:0.5;" width="246.3838" x="395.81" y="179.69"/><ellipse cx="476.3032" cy="195.69" fill="#EB937F" rx="11" ry="11" style="stroke:#181818;stroke-width:1;"/><path d="M479.9174,202.19 L472.1977,202.19 L472.1977,189.7969 L479.9174,189.7969 L479.9174,191.9551 L474.6464,191.9551 L474.6464,194.628 L479.4194,194.628 L479.4194,196.7862 L474.6464,196.7862 L474.6464,200.0318 L479.9174,200.0318 Z " fill="#000000"/><text fill="#000000" font-family="sans-serif" font-size="14" font-weight="bold" lengthAdjust="spacing" textLength="76.8975" x="496.8032" y="200.981">_FORMATS</text><line style="stroke:#181818;stroke-width:0.5;" x1="396.81" x2="641.1938" y1="211.69" y2="211.69"/><text fill="#000000" font-family="sans-serif" font-size="14" lengthAdjust="spacing" textLength="214.4365" x="401.81" y="229.2252">pyfive.Dataset =&gt; PyfiveFormat</text><text fill="#000000" font-family="sans-serif" font-size="14" lengthAdjust="spacing" textLength="192.165" x="401.81" y="245.7134">zarr.Array     =&gt; ZarrFormat</text><text fill="#000000" font-family="sans-serif" font-size="14" lengthAdjust="spacing" textLength="215.1133" x="401.81" y="262.2017">p5rem.File     =&gt; P5RemFormat</text><text fill="#000000" font-family="sans-serif" font-size="14" lengthAdjust="spacing" textLength="205.4609" x="401.81" y="278.69">".nc"/".he5"   =&gt; PyfiveFormat</text><text fill="#000000" font-family="sans-serif" font-size="14" lengthAdjust="spacing" textLength="179.751" x="401.81" y="295.1783">".zarr"        =&gt; ZarrFormat</text><text fill="#000000" font-family="sans-serif" font-size="14" lengthAdjust="spacing" textLength="234.3838" x="401.81" y="311.6666">".kerchunk"    =&gt; KerchunkFormat</text><line style="stroke:#181818;stroke-width:0.5;" x1="396.81" x2="641.1938" y1="318.6197" y2="318.6197"/></g><!--class Active--><g class="entity" data-entity="Active" data-source-line="122" data-uid="ent0017" id="entity_Active"><rect fill="#F1F1F1" height="336.3008" rx="2.5" ry="2.5" style="stroke:#181818;stroke-width:0.5;" width="219.4912" x="719.25" y="85"/><ellipse cx="802.498" cy="101" fill="#ADD1B2" rx="11" ry="11" style="stroke:#181818;stroke-width:1;"/><path d="M804.9712,107.1431 Q804.3901,107.4419 803.751,107.5913 Q803.1118,107.7407 802.4063,107.7407 Q799.8994,107.7407 798.5796,106.0889 Q797.2598,104.437 797.2598,101.3159 Q797.2598,98.1865 798.5796,96.5347 Q799.8994,94.8828 802.4063,94.8828 Q803.1118,94.8828 803.7593,95.0322 Q804.4067,95.1816 804.9712,95.4805 L804.9712,98.2031 Q804.3403,97.6221 803.7468,97.3523 Q803.1533,97.0825 802.5225,97.0825 Q801.1777,97.0825 800.4929,98.1492 Q799.8081,99.2158 799.8081,101.3159 Q799.8081,103.4077 800.4929,104.4744 Q801.1777,105.541 802.5225,105.541 Q803.1533,105.541 803.7468,105.2712 Q804.3403,105.0015 804.9712,104.4204 Z " fill="#000000"/><text fill="#000000" font-family="sans-serif" font-size="14" font-weight="bold" lengthAdjust="spacing" textLength="44.4951" x="822.998" y="106.291">Active</text><line style="stroke:#181818;stroke-width:0.5;" x1="720.25" x2="937.7412" y1="117" y2="117"/><text fill="#000000" font-family="sans-serif" font-size="14" lengthAdjust="spacing" textLength="112.998" x="725.25" y="134.5352">-_methods : dict</text><text fill="#000000" font-family="sans-serif" font-size="14" lengthAdjust="spacing" textLength="98.6973" x="725.25" y="151.0234">-_method : str</text><text fill="#000000" font-family="sans-serif" font-size="14" lengthAdjust="spacing" textLength="90.4736" x="725.25" y="167.5117">-_axis : tuple</text><text fill="#000000" font-family="sans-serif" font-size="14" lengthAdjust="spacing" textLength="142.249" x="725.25" y="184">-_components : bool</text><text fill="#000000" font-family="sans-serif" font-size="14" lengthAdjust="spacing" textLength="193.3887" x="725.25" y="200.4883">-_backend : StorageBackend</text><text fill="#000000" font-family="sans-serif" font-size="14" lengthAdjust="spacing" textLength="173.1406" x="725.25" y="216.9766">-_format : StorageFormat</text><line style="stroke:#181818;stroke-width:1;" x1="720.25" x2="937.7412" y1="223.9297" y2="223.9297"/><text fill="#000000" font-family="sans-serif" font-size="14" lengthAdjust="spacing" textLength="207.4912" x="725.25" y="241.4648">+register_method(name, func)</text><text fill="#000000" font-family="sans-serif" font-size="14" lengthAdjust="spacing" textLength="134.6543" x="725.25" y="257.9531">+method : property</text><text fill="#000000" font-family="sans-serif" font-size="14" lengthAdjust="spacing" textLength="166.25" x="725.25" y="274.4414">+components : property</text><text fill="#000000" font-family="sans-serif" font-size="14" lengthAdjust="spacing" textLength="110.9609" x="725.25" y="290.9297">+min(axis) : self</text><text fill="#000000" font-family="sans-serif" font-size="14" lengthAdjust="spacing" textLength="114.543" x="725.25" y="307.418">+max(axis) : self</text><text fill="#000000" font-family="sans-serif" font-size="14" lengthAdjust="spacing" textLength="122.4453" x="725.25" y="323.9063">+mean(axis) : self</text><text fill="#000000" font-family="sans-serif" font-size="14" lengthAdjust="spacing" textLength="114.0508" x="725.25" y="340.3945">+sum(axis) : self</text><line style="stroke:#181818;stroke-width:1;" x1="720.25" x2="937.7412" y1="347.3477" y2="347.3477"/><text fill="#000000" font-family="sans-serif" font-size="14" lengthAdjust="spacing" textLength="138.0859" x="725.25" y="364.8828">+__getitem__(index)</text><text fill="#000000" font-family="sans-serif" font-size="14" lengthAdjust="spacing" textLength="134.4424" x="725.25" y="381.3711">-_get_vanilla(index)</text><text fill="#000000" font-family="sans-serif" font-size="14" lengthAdjust="spacing" textLength="128.0029" x="725.25" y="397.8594">-_from_storage(...)</text><text fill="#000000" font-family="sans-serif" font-size="14" lengthAdjust="spacing" textLength="126.3486" x="725.25" y="414.3477">-_mask_data(data)</text></g><!--link BackendRegistry to SelectBackend--><g class="link" data-entity-1="BackendRegistry" data-entity-2="SelectBackend" data-source-line="144" data-uid="lnk18" id="link_BackendRegistry_SelectBackend"><path codeLine="144" d="M208,310.39 C208,372.23 208,470.3 208,526.78" fill="none" id="BackendRegistry-SelectBackend" style="stroke:#181818;stroke-width:1;stroke-dasharray:7,7;"/></g><!--link FormatRegistry to SelectFormat--><g class="link" data-entity-1="FormatRegistry" data-entity-2="SelectFormat" data-source-line="145" data-uid="lnk19" id="link_FormatRegistry_SelectFormat"><path codeLine="145" d="M519,326.79 C519,388.5 519,475.06 519,526.77" fill="none" id="FormatRegistry-SelectFormat" style="stroke:#181818;stroke-width:1;stroke-dasharray:7,7;"/></g><!--reverse link Active to StorageBackend--><g class="link" data-entity-1="Active" data-entity-2="StorageBackend" data-source-line="147" data-uid="lnk20" id="link_Active_StorageBackend"><path codeLine="147" d="M950.0208,305.3775 C1072.6608,357.2875 1261.55,437.25 1404.94,497.94" fill="none" id="Active-backto-StorageBackend" style="stroke:#181818;stroke-width:1;"/><polygon fill="none" points="938.97,300.7,942.9363,306.7224,950.0208,305.3775,946.0546,299.3551,938.97,300.7" style="stroke:#181818;stroke-width:1;"/><text fill="#000000" font-family="sans-serif" font-size="13" lengthAdjust="spacing" textLength="59.6108" x="1314.7" y="464.8784">_backend</text></g><!--reverse link Active to StorageFormat--><g class="link" data-entity-1="Active" data-entity-2="StorageFormat" data-source-line="148" data-uid="lnk21" id="link_Active_StorageFormat"><path codeLine="148" d="M829,433.73 C829,460.58 829,475.07 829,498.1" fill="none" id="Active-backto-StorageFormat" style="stroke:#181818;stroke-width:1;"/><polygon fill="none" points="829,421.73,825,427.73,829,433.73,833,427.73,829,421.73" style="stroke:#181818;stroke-width:1;"/><text fill="#000000" font-family="sans-serif" font-size="13" lengthAdjust="spacing" textLength="48.7627" x="830" y="464.8784">_format</text></g><!--link Active to SelectBackend--><g class="link" data-entity-1="Active" data-entity-2="SelectBackend" data-source-line="149" data-uid="lnk22" id="link_Active_SelectBackend"><path codeLine="149" d="M719.22,377.85 C700.68,394.11 680.69,409.27 660,421.31 C605.33,453.11 445.83,477.79 386,498.31 C361.38,506.75 340.8046,514.526 316.3546,524.386" fill="none" id="Active-to-SelectBackend" style="stroke:#181818;stroke-width:1;stroke-dasharray:7,7;"/><polygon fill="#181818" points="310.79,526.63,320.6329,526.9737,315.4271,524.76,317.6408,519.5542,310.79,526.63" style="stroke:#181818;stroke-width:1;"/><text fill="#000000" font-family="sans-serif" font-size="13" lengthAdjust="spacing" textLength="46.4458" x="576.92" y="464.8784">__init__</text></g><!--link Active to SelectFormat--><g class="link" data-entity-1="Active" data-entity-2="SelectFormat" data-source-line="150" data-uid="lnk23" id="link_Active_SelectFormat"><path codeLine="150" d="M719,384.9 C693.79,413.12 666.57,442.28 640,468.31 C619.55,488.34 600.3669,505.178 579.3069,522.658" fill="none" id="Active-to-SelectFormat" style="stroke:#181818;stroke-width:1;stroke-dasharray:7,7;"/><polygon fill="#181818" points="574.69,526.49,584.17,523.8198,578.5374,523.2966,579.0606,517.664,574.69,526.49" style="stroke:#181818;stroke-width:1;"/><text fill="#000000" font-family="sans-serif" font-size="13" lengthAdjust="spacing" textLength="46.4458" x="657.38" y="464.8784">__init__</text></g><!--link Active to ExecutionStrategy--><g class="link" data-entity-1="Active" data-entity-2="ExecutionStrategy" data-source-line="151" data-uid="lnk24" id="link_Active_ExecutionStrategy"><path codeLine="151" d="M939.22,372.23 C998.18,450.27 1050.37,554.52 1006,645.24 C981.51,695.31 949.33,685.97 907,722.24 C881.15,744.38 857.9582,765.8051 834.6082,788.1151" fill="none" id="Active-to-ExecutionStrategy" style="stroke:#181818;stroke-width:1;stroke-dasharray:7,7;"/><polygon fill="#181818" points="830.27,792.26,839.5405,788.9347,833.8851,788.8059,834.0139,783.1505,830.27,792.26" style="stroke:#181818;stroke-width:1;"/><text fill="#000000" font-family="sans-serif" font-size="13" lengthAdjust="spacing" textLength="262.9072" x="1023.58" y="576.8384">delegates via backend.execution_strategy</text></g><!--reverse link StorageBackend to ExecutionStrategy--><g class="link" data-entity-1="StorageBackend" data-entity-2="ExecutionStrategy" data-source-line="153" data-uid="lnk25" id="link_StorageBackend_ExecutionStrategy"><path codeLine="153" d="M1346.4456,641.7493 C1337.3156,643.9893 1339.91,643.26 1331,645.24 C1244.11,664.52 1220.18,657.28 1133,675.24 C1103.75,681.26 1097.14,685.72 1068,692.24 C996.97,708.12 971.9,689.28 907,722.24 C873.66,739.17 842.8,766.99 819.13,792.21" fill="none" id="StorageBackend-backto-ExecutionStrategy" style="stroke:#181818;stroke-width:1;"/><polygon fill="none" points="1358.1,638.89,1351.3197,636.4349,1346.4456,641.7493,1353.2259,644.2045,1358.1,638.89" style="stroke:#181818;stroke-width:1;"/><text fill="#000000" font-family="sans-serif" font-size="13" lengthAdjust="spacing" textLength="119.3486" x="1134" y="688.8084">execution_strategy</text></g><!--link StorageBackend to ChunkRequest--><g class="link" data-entity-1="StorageBackend" data-entity-2="ChunkRequest" data-source-line="155" data-uid="lnk26" id="link_StorageBackend_ChunkRequest"><path codeLine="155" d="M1555.35,645.57 C1548.37,669.02 1542.1398,689.9788 1534.3598,716.1488" fill="none" id="StorageBackend-to-ChunkRequest" style="stroke:#181818;stroke-width:1;stroke-dasharray:7,7;"/><polygon fill="#181818" points="1532.65,721.9,1539.0488,714.413,1534.0748,717.1073,1531.3805,712.1333,1532.65,721.9" style="stroke:#181818;stroke-width:1;"/><text fill="#000000" font-family="sans-serif" font-size="13" lengthAdjust="spacing" textLength="63.4131" x="1546.76" y="688.8084">consumes</text></g><!--link StorageBackend to ChunkResult--><g class="link" data-entity-1="StorageBackend" data-entity-2="ChunkResult" data-source-line="156" data-uid="lnk27" id="link_StorageBackend_ChunkResult"><path codeLine="156" d="M1613.44,645.57 C1637.16,692.95 1664.8442,748.2747 1686.1742,790.8847" fill="none" id="StorageBackend-to-ChunkResult" style="stroke:#181818;stroke-width:1;stroke-dasharray:7,7;"/><polygon fill="#181818" points="1688.86,796.25,1688.4082,786.4115,1686.6218,791.7789,1681.2544,789.9926,1688.86,796.25" style="stroke:#181818;stroke-width:1;"/><text fill="#000000" font-family="sans-serif" font-size="13" lengthAdjust="spacing" textLength="58.2651" x="1634.64" y="688.8084">produces</text></g><!--link StorageBackend to SelectionRequest--><g class="link" data-entity-1="StorageBackend" data-entity-2="SelectionRequest" data-source-line="157" data-uid="lnk28" id="link_StorageBackend_SelectionRequest"><path codeLine="157" d="M1470.31,645.7 C1438.15,669.05 1403.35,695.75 1373,722.24 C1361.29,732.45 1353.6815,739.4065 1342.1515,750.7265" fill="none" id="StorageBackend-to-SelectionRequest" style="stroke:#181818;stroke-width:1;stroke-dasharray:7,7;"/><polygon fill="#181818" points="1337.87,754.93,1347.0945,751.4791,1341.4379,751.4271,1341.4899,745.7705,1337.87,754.93" style="stroke:#181818;stroke-width:1;"/><text fill="#000000" font-family="sans-serif" font-size="13" lengthAdjust="spacing" textLength="63.4131" x="1427.74" y="688.8084">consumes</text></g><!--link StorageBackend to SelectionResult--><g class="link" data-entity-1="StorageBackend" data-entity-2="SelectionResult" data-source-line="158" data-uid="lnk29" id="link_StorageBackend_SelectionResult"><path codeLine="158" d="M1397.77,645.73 C1353.78,662.25 1306.53,678.84 1262,692.24 C1203.97,709.69 1181.11,691.3 1129,722.24 C1095,742.42 1069.3852,771.7232 1049.5252,799.4332" fill="none" id="StorageBackend-to-SelectionResult" style="stroke:#181818;stroke-width:1;stroke-dasharray:7,7;"/><polygon fill="#181818" points="1046.03,804.31,1054.5241,799.325,1048.9427,800.246,1048.0217,794.6646,1046.03,804.31" style="stroke:#181818;stroke-width:1;"/><text fill="#000000" font-family="sans-serif" font-size="13" lengthAdjust="spacing" textLength="58.2651" x="1315.49" y="688.8084">produces</text></g><!--link StorageFormat to ChunkMetadata--><g class="link" data-entity-1="StorageFormat" data-entity-2="ChunkMetadata" data-source-line="160" data-uid="lnk30" id="link_StorageFormat_ChunkMetadata"><path codeLine="160" d="M724.67,645.55 C695.13,668.45 663.97,694.93 638,722.24 C626.08,734.77 618.1027,744.1871 607.4727,758.4671" fill="none" id="StorageFormat-to-ChunkMetadata" style="stroke:#181818;stroke-width:1;stroke-dasharray:7,7;"/><polygon fill="#181818" points="603.89,763.28,612.4727,758.4491,606.8756,759.2692,606.0555,753.6722,603.89,763.28" style="stroke:#181818;stroke-width:1;"/><text fill="#000000" font-family="sans-serif" font-size="13" lengthAdjust="spacing" textLength="58.2651" x="687.39" y="688.8084">produces</text></g><!--link StorageFormat to MissingAttributes--><g class="link" data-entity-1="StorageFormat" data-entity-2="MissingAttributes" data-source-line="161" data-uid="lnk31" id="link_StorageFormat_MissingAttributes"><path codeLine="161" d="M669.1,639.01 C663.34,641.15 657.63,643.23 652,645.24 C541.27,684.66 468.97,627.8 399,722.24 C331.67,813.11 324.87,891.29 399,976.72 C449.28,1034.66 961.2458,1077.2547 1164.1358,1092.0147" fill="none" id="StorageFormat-to-MissingAttributes" style="stroke:#181818;stroke-width:1;stroke-dasharray:7,7;"/><polygon fill="#181818" points="1170.12,1092.45,1161.4339,1087.8075,1165.1332,1092.0872,1160.8535,1095.7864,1170.12,1092.45" style="stroke:#181818;stroke-width:1;"/><text fill="#000000" font-family="sans-serif" font-size="13" lengthAdjust="spacing" textLength="58.2651" x="400" y="854.5484">produces</text></g><!--reverse link ChunkRequest to MissingAttributes--><g class="link" data-entity-1="ChunkRequest" data-entity-2="MissingAttributes" data-source-line="163" data-uid="lnk32" id="link_ChunkRequest_MissingAttributes"><path codeLine="163" d="M1381.9285,967.648 C1376.0785,973.628 1378.67,970.96 1373,976.72 C1353.39,996.6 1331.84,1018.14 1312.37,1037.47" fill="none" id="ChunkRequest-backto-MissingAttributes" style="stroke:#181818;stroke-width:1;"/><polygon fill="#181818" points="1390.32,959.07,1383.2649,960.5618,1381.9285,967.648,1388.9836,966.1562,1390.32,959.07" style="stroke:#181818;stroke-width:1;"/></g><!--reverse link SelectionRequest to MissingAttributes--><g class="link" data-entity-1="SelectionRequest" data-entity-2="MissingAttributes" data-source-line="164" data-uid="lnk33" id="link_SelectionRequest_MissingAttributes"><path codeLine="164" d="M1251,956.06 C1251,987.27 1251,1009.21 1251,1037.26" fill="none" id="SelectionRequest-backto-MissingAttributes" style="stroke:#181818;stroke-width:1;"/><polygon fill="#181818" points="1251,944.06,1247,950.06,1251,956.06,1255,950.06,1251,944.06" style="stroke:#181818;stroke-width:1;"/></g><!--SRC=[hLTTRzis57ttho3qChbrr7L5NemiWDiqsD2bA-mz3GC4Mg9ipXAfaLGGjyr_toL5oQH49HuoFIGMxo7lkP-yaWVAQYnmXR8IIxbIIj1jeyYl6MSR-fMW7sVIXznofZRgM1AqvMNkI6kS7V2Ej391CeNPhYIpsG_euiKF7793yKwhURj46HS4SLOU_v-pPvOvYd2cw3sHYWjuJRIQ27sRpH0yndQq8IKOHZbRatyQ0AAhgnmhR8JNru15ze5Zkv-lKICeMYAfXBDsZmN5M_3KK20x5I1HJGqUFCagelOy7st13rI6q5HAodOWkMj_zT6L3YhZLIs8b5m0a6__1kMEjA2b8aAVNbBP2XvTXtpOD-pmOcVmef14mJ9bhdAf4t2ucAjZFVPQfdc4dC15JiGO_b-DThIaJqReB9-V6qVFrQC3p_Ct65EczxXi0ZH7w_1EyxIYRBo67oQYVqSKrZpEesF2vyPuZqquXuwS3EWfTET4B1n-W1E6ApUDGbajc_BCf3RsBn6hamedM0Xyz1WtR9pSl54JcVGuqN5UGWTzHpdrafmvZAn6l0LlG0_iLBTzy9QB2gifLT-wJO-8ruJ5KDuBP3jeoclDNCx3-1rHQTS6OvR1ppbmqjoX6KnlwN8NzuKGpv-fjy49bENaWOYuT__S-C8iJkzgYx-osMvqUlaVtfcLN99u_hoRtyCbH5Zk-1cAewbhBXJ9qxPZw0JtVGEKiqQRaEep5TaT0VAnMzpOjN3ej54IAWc0iHiYGxcNsFyJCHGaRpBI-YOMxJsmz6w5tazj0Zl7sBrz54xxXzUiFcDG24yuT6I-vrE7VEiy4czRrqFUjhOk_c88-U5UTFbXP3O55xQHcpL684ocrEN2T79DUbHxNcr7rlRK4eYX7eaeC3X5Tya5keUUfdqV8TnrWYvDhgwAXXb_U6rWJLGZs2YfPBCrAdjS8NY5qlUh3vy-VhxP67x94mGBqmDYMvik7ziTpgDZmHDiRdzVtwt-290XhAc0IyVMQBUMhSaE6hvmGnn_vWnyz_RDJtE4Vhv6l_4CbnP-0aNoNUI0Dk_6YBrIjGGGG03nYtuRW-fBGIe0lJAWBvThKhaWtm9heJ6WzKM0VtqiO0XDRbfVcrFDIhkXXts5t4fM9h_q0x0_OMK0CkoIMxZkEf1XE4152SkYDr6o9vUHHOKqHedM6NMlOOrHSY32r4vaGP_ikmFqacnbXcxtVa5Ek_DkhLuokD5XFJW3mxeU5o0Ve2f1kkMyT8MsxdHtyUh5nRIfVu8CxFKwgZ3H9CAoZFMCiK2wCkQXwQyMS6KATHnCDptTW1n6ixXhBb2RXIl23vCYWYUtoQOAYppBqXHk2wf8bQQnwOHprqVjJSvWqiG1gQxkr8u4SP8adh32yf2Q2rN_yUx9OOadYTy33MXGHYUGZPC1sHJZ5nV3nhZias02Q5kM1XQdo5jSabmFshB6mNn1LPg6WTrvJm37znUK0MpUOJtqtrECBELaVFktzWwCrEQ43Zrpk-RaVUSXGp-3oQwfx9mrlSLChNOB9BI-yYUtZ3wldzSod8zTBUuUw_UUMF_LCitCsJB-zXggyHpq2XmUdaT75eQXZxD_0G00]--></g></svg>