<svg xmlns="http://www.w3.org/2000/svg" xmlns:xlink="http://www.w3.org/1999/xlink" contentStyleType="text/css" data-diagram-type="CLASS" height="1044px" preserveAspectRatio="none" style="width:1744px;height:1044px;background:#FFFFFF;" version="1.1" viewBox="0 0 1744 1044" width="1744px" zoomAndPan="magnify"><title>Axis Parameter Support Architecture</title><defs/><g><g class="title" data-source-line="2"><text fill="#000000" font-family="sans-serif" font-size="14" font-weight="bold" lengthAdjust="spacing" textLength="263.6826" x="733.1587" y="23.5352">Axis Parameter Support Architecture</text></g><!--cluster activestorage--><g class="cluster" data-entity="activestorage" data-source-line="10" data-uid="ent0004" id="cluster_activestorage"><rect fill="none" height="994.14" rx="2.5" ry="2.5" style="stroke:#000000;stroke-width:1.5;" width="1731" x="7" y="44.4883"/><text fill="#000000" font-family="sans-serif" font-size="14" font-weight="bold" lengthAdjust="spacing" textLength="96.9814" x="824.0093" y="60.0234">activestorage</text></g><!--cluster core--><g class="cluster" data-entity="core" data-source-line="8" data-uid="ent0002" id="cluster_core"><rect fill="none" height="865.19" rx="2.5" ry="2.5" style="stroke:#000000;stroke-width:1.5;" width="703" x="31" y="87.4883"/><text fill="#000000" font-family="sans-serif" font-size="14" font-weight="bold" lengthAdjust="spacing" textLength="30.96" x="367.02" y="103.0234">core</text></g><!--cluster backends--><g class="cluster" data-entity="backends" data-source-line="87" data-uid="ent0017" id="cluster_backends"><rect fill="none" height="490.08" rx="2.5" ry="2.5" style="stroke:#000000;stroke-width:1.5;" width="956" x="758" y="112.2283"/><text fill="#000000" font-family="sans-serif" font-size="14" font-weight="bold" lengthAdjust="spacing" textLength="68.4072" x="1201.7964" y="127.7634">backends</text></g><!--cluster reductionist (v2 API)--><g class="cluster" data-entity="reductionist .v2 API." data-source-line="131" data-uid="ent0025" id="cluster_reductionist .v2 API."><rect fill="none" height="329.84" rx="2.5" ry="2.5" style="stroke:#000000;stroke-width:1.5;" width="695" x="1019" y="684.7883"/><text fill="#000000" font-family="sans-serif" font-size="14" font-weight="bold" lengthAdjust="spacing" textLength="147.6768" x="1292.6616" y="700.3234">reductionist (v2 API)</text></g><!--class Active--><g class="entity" data-entity="Active" data-source-line="10" data-uid="ent0003" id="entity_Active"><rect fill="#F1F1F1" height="253.8594" rx="2.5" ry="2.5" style="stroke:#181818;stroke-width:0.5;" width="267.3291" x="409.34" y="122.4883"/><ellipse cx="516.507" cy="138.4883" fill="#ADD1B2" rx="11" ry="11" style="stroke:#181818;stroke-width:1;"/><path d="M518.9801,144.6313 Q518.3991,144.9302 517.7599,145.0796 Q517.1208,145.229 516.4152,145.229 Q513.9084,145.229 512.5885,143.5771 Q511.2687,141.9253 511.2687,138.8042 Q511.2687,135.6748 512.5885,134.0229 Q513.9084,132.3711 516.4152,132.3711 Q517.1208,132.3711 517.7682,132.5205 Q518.4157,132.6699 518.9801,132.9688 L518.9801,135.6914 Q518.3493,135.1104 517.7558,134.8406 Q517.1623,134.5708 516.5314,134.5708 Q515.1867,134.5708 514.5019,135.6375 Q513.8171,136.7041 513.8171,138.8042 Q513.8171,140.896 514.5019,141.9626 Q515.1867,143.0293 516.5314,143.0293 Q517.1623,143.0293 517.7558,142.7595 Q518.3493,142.4897 518.9801,141.9087 Z " fill="#000000"/><text fill="#000000" font-family="sans-serif" font-size="14" font-weight="bold" lengthAdjust="spacing" textLength="44.4951" x="537.007" y="143.7793">Active</text><line style="stroke:#181818;stroke-width:0.5;" x1="410.34" x2="675.6691" y1="154.4883" y2="154.4883"/><text fill="#000000" font-family="sans-serif" font-size="14" lengthAdjust="spacing" textLength="135.5635" x="415.34" y="172.0234">-_axis: tuple | None</text><line style="stroke:#181818;stroke-width:1;" x1="410.34" x2="675.6691" y1="178.9766" y2="178.9766"/><text fill="#000000" font-family="sans-serif" font-size="14" lengthAdjust="spacing" textLength="235.9834" x="415.34" y="196.5117">+min(axis: int | tuple | None) : self</text><text fill="#000000" font-family="sans-serif" font-size="14" lengthAdjust="spacing" textLength="239.5654" x="415.34" y="213">+max(axis: int | tuple | None) : self</text><text fill="#000000" font-family="sans-serif" font-size="14" lengthAdjust="spacing" textLength="247.4678" x="415.34" y="229.4883">+mean(axis: int | tuple | None) : self</text><text fill="#000000" font-family="sans-serif" font-size="14" lengthAdjust="spacing" textLength="239.0732" x="415.34" y="245.9766">+sum(axis: int | tuple | None) : self</text><text fill="#000000" font-family="sans-serif" font-size="14" lengthAdjust="spacing" textLength="221.5459" x="415.34" y="262.4648">-_get_selection(selection) : array</text><text fill="#000000" font-family="sans-serif" font-size="14" lengthAdjust="spacing" textLength="255.3291" x="415.34" y="278.9531">-_from_storage(..., axis: tuple) : array</text><line style="stroke:#181818;stroke-width:1;" x1="410.34" x2="675.6691" y1="285.9063" y2="285.9063"/><text fill="#000000" font-family="sans-serif" font-size="14" font-weight="bold" lengthAdjust="spacing" textLength="72.7344" x="415.34" y="303.4414">Axis Flow:</text><text fill="#000000" font-family="sans-serif" font-size="14" lengthAdjust="spacing" textLength="198.0713" x="415.34" y="319.9297">User calls method(axis=N) &#8594;</text><text fill="#000000" font-family="sans-serif" font-size="14" lengthAdjust="spacing" textLength="116.1631" x="415.34" y="336.418">stores in _axis &#8594;</text><text fill="#000000" font-family="sans-serif" font-size="14" lengthAdjust="spacing" textLength="176.1826" x="415.34" y="352.9063">uses in _get_selection() &#8594;</text><text fill="#000000" font-family="sans-serif" font-size="14" lengthAdjust="spacing" textLength="175.0615" x="415.34" y="369.3945">passes to _from_storage()</text></g><!--class ChunkRequest--><g class="entity" data-entity="ChunkRequest" data-source-line="27" data-uid="ent0005" id="entity_ChunkRequest"><rect fill="#F1F1F1" height="138.4414" rx="2.5" ry="2.5" style="stroke:#181818;stroke-width:0.5;" width="273.4609" x="134.27" y="468.3483"/><ellipse cx="214.4795" cy="484.3483" fill="#ADD1B2" rx="11" ry="11" style="stroke:#181818;stroke-width:1;"/><path d="M216.9526,490.4913 Q216.3716,490.7902 215.7324,490.9396 Q215.0932,491.089 214.3877,491.089 Q211.8808,491.089 210.561,489.4371 Q209.2412,487.7853 209.2412,484.6642 Q209.2412,481.5348 210.561,479.8829 Q211.8808,478.2311 214.3877,478.2311 Q215.0932,478.2311 215.7407,478.3805 Q216.3882,478.5299 216.9526,478.8288 L216.9526,481.5514 Q216.3218,480.9704 215.7283,480.7006 Q215.1347,480.4308 214.5039,480.4308 Q213.1592,480.4308 212.4743,481.4975 Q211.7895,482.5641 211.7895,484.6642 Q211.7895,486.756 212.4743,487.8226 Q213.1592,488.8893 214.5039,488.8893 Q215.1347,488.8893 215.7283,488.6195 Q216.3218,488.3497 216.9526,487.7687 Z " fill="#000000"/><text fill="#000000" font-family="sans-serif" font-size="14" font-weight="bold" lengthAdjust="spacing" textLength="104.542" x="234.9795" y="489.6393">ChunkRequest</text><line style="stroke:#181818;stroke-width:0.5;" x1="135.27" x2="406.7309" y1="500.3483" y2="500.3483"/><line style="stroke:#181818;stroke-width:1;" x1="135.27" x2="406.7309" y1="508.3483" y2="508.3483"/><text fill="#000000" font-family="sans-serif" font-size="14" lengthAdjust="spacing" textLength="131.5918" x="140.27" y="525.8834">+axis: tuple | None</text><line style="stroke:#181818;stroke-width:1;" x1="135.27" x2="406.7309" y1="532.8366" y2="532.8366"/><text fill="#000000" font-family="sans-serif" font-size="14" font-weight="bold" lengthAdjust="spacing" textLength="100.2764" x="140.27" y="550.3717">Axis contains:</text><text fill="#000000" font-family="sans-serif" font-size="14" lengthAdjust="spacing" textLength="215.626" x="140.27" y="566.86">-Tuple of dimensions to reduce</text><text fill="#000000" font-family="sans-serif" font-size="14" lengthAdjust="spacing" textLength="261.4609" x="140.27" y="583.3483">-Example: (0, 1) to reduce first 2 dims</text><text fill="#000000" font-family="sans-serif" font-size="14" lengthAdjust="spacing" textLength="259.2188" x="140.27" y="599.8366">-None means reduce all (scalar result)</text></g><!--class SelectionRequest--><g class="entity" data-entity="SelectionRequest" data-source-line="37" data-uid="ent0006" id="entity_SelectionRequest"><rect fill="#F1F1F1" height="121.9531" rx="2.5" ry="2.5" style="stroke:#181818;stroke-width:0.5;" width="252.5361" x="460.73" y="476.5983"/><ellipse cx="521.2998" cy="492.5983" fill="#ADD1B2" rx="11" ry="11" style="stroke:#181818;stroke-width:1;"/><path d="M523.773,498.7413 Q523.1919,499.0402 522.5528,499.1896 Q521.9136,499.339 521.208,499.339 Q518.7012,499.339 517.3814,497.6871 Q516.0615,496.0353 516.0615,492.9142 Q516.0615,489.7848 517.3814,488.1329 Q518.7012,486.4811 521.208,486.4811 Q521.9136,486.4811 522.5611,486.6305 Q523.2085,486.7799 523.773,487.0788 L523.773,489.8014 Q523.1421,489.2204 522.5486,488.9506 Q521.9551,488.6808 521.3242,488.6808 Q519.9795,488.6808 519.2947,489.7475 Q518.6099,490.8141 518.6099,492.9142 Q518.6099,495.006 519.2947,496.0726 Q519.9795,497.1393 521.3242,497.1393 Q521.9551,497.1393 522.5486,496.8695 Q523.1421,496.5997 523.773,496.0187 Z " fill="#000000"/><text fill="#000000" font-family="sans-serif" font-size="14" font-weight="bold" lengthAdjust="spacing" textLength="122.8965" x="541.7998" y="497.8893">SelectionRequest</text><line style="stroke:#181818;stroke-width:0.5;" x1="461.73" x2="712.2661" y1="508.5983" y2="508.5983"/><line style="stroke:#181818;stroke-width:1;" x1="461.73" x2="712.2661" y1="516.5983" y2="516.5983"/><text fill="#000000" font-family="sans-serif" font-size="14" lengthAdjust="spacing" textLength="131.5918" x="466.73" y="534.1334">+axis: tuple | None</text><line style="stroke:#181818;stroke-width:1;" x1="461.73" x2="712.2661" y1="541.0866" y2="541.0866"/><text fill="#000000" font-family="sans-serif" font-size="14" font-weight="bold" lengthAdjust="spacing" textLength="81.9082" x="466.73" y="558.6217">When used:</text><text fill="#000000" font-family="sans-serif" font-size="14" lengthAdjust="spacing" textLength="202.7813" x="466.73" y="575.11">-Whole-array reduction paths</text><text fill="#000000" font-family="sans-serif" font-size="14" lengthAdjust="spacing" textLength="240.5361" x="466.73" y="591.5983">-Less common than chunked paths</text></g><!--class ChunkResult--><g class="entity" data-entity="ChunkResult" data-source-line="46" data-uid="ent0007" id="entity_ChunkResult"><rect fill="#F1F1F1" height="154.9297" rx="2.5" ry="2.5" style="stroke:#181818;stroke-width:0.5;" width="422.6689" x="46.67" y="781.7483"/><ellipse cx="207.9469" cy="797.7483" fill="#ADD1B2" rx="11" ry="11" style="stroke:#181818;stroke-width:1;"/><path d="M210.42,803.8913 Q209.8389,804.1902 209.1998,804.3396 Q208.5606,804.489 207.8551,804.489 Q205.3482,804.489 204.0284,802.8371 Q202.7086,801.1853 202.7086,798.0642 Q202.7086,794.9348 204.0284,793.2829 Q205.3482,791.6311 207.8551,791.6311 Q208.5606,791.6311 209.2081,791.7805 Q209.8555,791.9299 210.42,792.2288 L210.42,794.9514 Q209.7891,794.3704 209.1956,794.1006 Q208.6021,793.8308 207.9713,793.8308 Q206.6265,793.8308 205.9417,794.8975 Q205.2569,795.9641 205.2569,798.0642 Q205.2569,800.156 205.9417,801.2226 Q206.6265,802.2893 207.9713,802.2893 Q208.6021,802.2893 209.1956,802.0195 Q209.7891,801.7497 210.42,801.1687 Z " fill="#000000"/><text fill="#000000" font-family="sans-serif" font-size="14" font-weight="bold" lengthAdjust="spacing" textLength="91.6152" x="228.4469" y="803.0393">ChunkResult</text><line style="stroke:#181818;stroke-width:0.5;" x1="47.67" x2="468.3389" y1="813.7483" y2="813.7483"/><line style="stroke:#181818;stroke-width:1;" x1="47.67" x2="468.3389" y1="821.7483" y2="821.7483"/><text fill="#000000" font-family="sans-serif" font-size="14" lengthAdjust="spacing" textLength="162.5176" x="52.67" y="839.2834">+data: np.ndarray | dict</text><text fill="#000000" font-family="sans-serif" font-size="14" lengthAdjust="spacing" textLength="125.8633" x="52.67" y="855.7717">+count: int | None</text><line style="stroke:#181818;stroke-width:1;" x1="47.67" x2="468.3389" y1="862.7248" y2="862.7248"/><text fill="#000000" font-family="sans-serif" font-size="14" font-weight="bold" lengthAdjust="spacing" textLength="217.1436" x="52.67" y="880.26">Return values depend on axis:</text><text fill="#000000" font-family="sans-serif" font-size="14" lengthAdjust="spacing" textLength="257.5713" x="52.67" y="896.7483">-axis=(0,1): shape reduced by 2 dims</text><text fill="#000000" font-family="sans-serif" font-size="14" lengthAdjust="spacing" textLength="248.3086" x="52.67" y="913.2366">-axis=None: scalar or dict of scalars</text><text fill="#000000" font-family="sans-serif" font-size="14" lengthAdjust="spacing" textLength="410.6689" x="52.67" y="929.7248">-components=True: returns dict with 'sum' or 'mean' and 'n'</text></g><g class="entity" data-entity="GMN11" data-source-line="62" data-uid="ent0012" id="entity_GMN11"><path d="M59.18,137.2483 L59.18,361.5959 A0,0 0 0 0 59.18,361.5959 L374.8255,361.5959 A0,0 0 0 0 374.8255,361.5959 L374.8255,253.4183 L408.98,249.4183 L374.8255,245.4183 L374.8255,147.2483 L364.8255,137.2483 L59.18,137.2483 A0,0 0 0 0 59.18,137.2483" fill="#FEFFDD" style="stroke:#181818;stroke-width:0.5;"/><path d="M364.8255,137.2483 L364.8255,147.2483 L374.8255,147.2483 L364.8255,137.2483" fill="#FEFFDD" style="stroke:#181818;stroke-width:0.5;"/><text fill="#000000" font-family="sans-serif" font-size="13" font-weight="bold" lengthAdjust="spacing" textLength="104.4507" x="65.18" y="154.8166">Example Usage:</text><text fill="#000000" font-family="sans-serif" font-size="13" lengthAdjust="spacing" textLength="192.3975" x="65.18" y="170.1272">// Reduce along first axis only</text><text fill="#000000" font-family="sans-serif" font-size="13" lengthAdjust="spacing" textLength="245.3496" x="65.18" y="185.4377">active = Active("file.nc", "temperature")</text><text fill="#000000" font-family="sans-serif" font-size="13" lengthAdjust="spacing" textLength="194.7207" x="65.18" y="200.7483">result = active.mean(axis=0)[:]</text><text fill="#000000" font-family="sans-serif" font-size="13" lengthAdjust="spacing" textLength="4.1133" x="65.18" y="216.0588">&#160;</text><text fill="#000000" font-family="sans-serif" font-size="13" lengthAdjust="spacing" textLength="294.6455" x="65.18" y="231.3694">// Result shape: (10,10) if original (100,10,10)</text><text fill="#000000" font-family="sans-serif" font-size="13" lengthAdjust="spacing" textLength="4.1133" x="65.18" y="246.6799">&#160;</text><text fill="#000000" font-family="sans-serif" font-size="13" lengthAdjust="spacing" textLength="173.1006" x="65.18" y="261.9905">// Reduce all axes to scalar</text><text fill="#000000" font-family="sans-serif" font-size="13" lengthAdjust="spacing" textLength="219.4004" x="65.18" y="277.301">result = active.mean(axis=None)[:]</text><text fill="#000000" font-family="sans-serif" font-size="13" lengthAdjust="spacing" textLength="138.563" x="65.18" y="292.6116">// Result: scalar value</text><text fill="#000000" font-family="sans-serif" font-size="13" lengthAdjust="spacing" textLength="4.1133" x="65.18" y="307.9221">&#160;</text><text fill="#000000" font-family="sans-serif" font-size="13" lengthAdjust="spacing" textLength="101.7085" x="65.18" y="323.2327">// Multiple axes</text><text fill="#000000" font-family="sans-serif" font-size="13" lengthAdjust="spacing" textLength="207.7144" x="65.18" y="338.5432">result = active.sum(axis=(0,2))[:]</text><text fill="#000000" font-family="sans-serif" font-size="13" lengthAdjust="spacing" textLength="242.436" x="65.18" y="353.8538">// Reduces axes 0 and 2, keeps axis 1</text></g><g class="entity" data-entity="GMN14" data-source-line="79" data-uid="ent0015" id="entity_GMN14"><path d="M504.02,823.5883 L504.02,894.8305 A0,0 0 0 0 504.02,894.8305 L717.9824,894.8305 A0,0 0 0 0 717.9824,894.8305 L717.9824,833.5883 L707.9824,823.5883 L612.4,823.5883 L591.51,598.6883 L604.4,823.5883 L504.02,823.5883 A0,0 0 0 0 504.02,823.5883" fill="#FEFFDD" style="stroke:#181818;stroke-width:0.5;"/><path d="M707.9824,823.5883 L707.9824,833.5883 L717.9824,833.5883 L707.9824,823.5883" fill="#FEFFDD" style="stroke:#181818;stroke-width:0.5;"/><text fill="#000000" font-family="sans-serif" font-size="13" lengthAdjust="spacing" textLength="153.1245" x="510.02" y="841.1566">This is not implemented</text><text fill="#000000" font-family="sans-serif" font-size="13" lengthAdjust="spacing" textLength="159.4087" x="510.02" y="856.4672">at the moment, will likely</text><text fill="#000000" font-family="sans-serif" font-size="13" lengthAdjust="spacing" textLength="192.9624" x="510.02" y="871.7777">be implemented first in p5rem</text><text fill="#000000" font-family="sans-serif" font-size="13" lengthAdjust="spacing" textLength="57.2241" x="510.02" y="887.0883">backend.</text></g><!--class StorageBackend--><g class="entity" data-entity="StorageBackend" data-source-line="89" data-uid="ent0018" id="entity_StorageBackend"><rect fill="#F1F1F1" height="204.3945" rx="2.5" ry="2.5" style="stroke:#181818;stroke-width:0.5;" width="437.0518" x="1017.47" y="147.2283"/><ellipse cx="1174.406" cy="163.2283" fill="#A9DCDF" rx="11" ry="11" style="stroke:#181818;stroke-width:1;"/><path d="M1174.2693,158.5764 L1173.1155,163.6482 L1175.4314,163.6482 Z M1172.7752,156.3352 L1175.7718,156.3352 L1179.117,168.7283 L1176.6682,168.7283 L1175.9046,165.6653 L1172.6258,165.6653 L1171.8787,168.7283 L1169.43,168.7283 Z " fill="#000000"/><text fill="#000000" font-family="sans-serif" font-size="14" font-style="italic" font-weight="bold" lengthAdjust="spacing" textLength="114.6797" x="1194.906" y="168.5193">StorageBackend</text><line style="stroke:#181818;stroke-width:0.5;" x1="1018.47" x2="1453.5218" y1="179.2283" y2="179.2283"/><line style="stroke:#181818;stroke-width:1;" x1="1018.47" x2="1453.5218" y1="187.2283" y2="187.2283"/><text fill="#000000" font-family="sans-serif" font-size="14" lengthAdjust="spacing" textLength="371.957" x="1023.47" y="204.7634">+reduce_chunk(request: ChunkRequest) : ChunkResult</text><text fill="#000000" font-family="sans-serif" font-size="14" lengthAdjust="spacing" textLength="425.0518" x="1023.47" y="221.2517">+reduce_selection(request: SelectionRequest) : SelectionResult</text><line style="stroke:#181818;stroke-width:1;" x1="1018.47" x2="1453.5218" y1="228.2048" y2="228.2048"/><text fill="#000000" font-family="sans-serif" font-size="14" font-weight="bold" lengthAdjust="spacing" textLength="104.2822" x="1023.47" y="245.74">Axis Handling:</text><text fill="#000000" font-family="sans-serif" font-size="14" lengthAdjust="spacing" textLength="182.9707" x="1023.47" y="262.2283">LocalBackend: ignores axis</text><text fill="#000000" font-family="sans-serif" font-size="14" lengthAdjust="spacing" textLength="194.1064" x="1023.47" y="278.7166">(uses storage.reduce_chunk)</text><text fill="#000000" font-family="sans-serif" font-size="14" lengthAdjust="spacing" textLength="253.6338" x="1023.47" y="295.2048">S3Backend: passes axis=request.axis</text><text fill="#000000" font-family="sans-serif" font-size="14" lengthAdjust="spacing" textLength="207.4092" x="1023.47" y="311.6931">to reductionist.reduce_chunk()</text><text fill="#000000" font-family="sans-serif" font-size="14" lengthAdjust="spacing" textLength="273.9502" x="1023.47" y="328.1814">HttpsBackend: passes axis=request.axis</text><text fill="#000000" font-family="sans-serif" font-size="14" lengthAdjust="spacing" textLength="207.4092" x="1023.47" y="344.6697">to reductionist.reduce_chunk()</text></g><!--class LocalBackend--><g class="entity" data-entity="LocalBackend" data-source-line="103" data-uid="ent0019" id="entity_LocalBackend"><rect fill="#F1F1F1" height="97.4648" rx="2.5" ry="2.5" style="stroke:#181818;stroke-width:0.5;" width="284.9727" x="773.51" y="488.8383"/><ellipse cx="863.071" cy="504.8383" fill="#ADD1B2" rx="11" ry="11" style="stroke:#181818;stroke-width:1;"/><path d="M865.5442,510.9813 Q864.9631,511.2802 864.324,511.4296 Q863.6848,511.579 862.9792,511.579 Q860.4724,511.579 859.1526,509.9271 Q857.8328,508.2753 857.8328,505.1542 Q857.8328,502.0248 859.1526,500.3729 Q860.4724,498.7211 862.9792,498.7211 Q863.6848,498.7211 864.3323,498.8705 Q864.9797,499.0199 865.5442,499.3188 L865.5442,502.0414 Q864.9133,501.4604 864.3198,501.1906 Q863.7263,500.9208 863.0954,500.9208 Q861.7507,500.9208 861.0659,501.9875 Q860.3811,503.0541 860.3811,505.1542 Q860.3811,507.246 861.0659,508.3126 Q861.7507,509.3793 863.0954,509.3793 Q863.7263,509.3793 864.3198,509.1095 Q864.9133,508.8397 865.5442,508.2587 Z " fill="#000000"/><text fill="#000000" font-family="sans-serif" font-size="14" font-weight="bold" lengthAdjust="spacing" textLength="97.3506" x="883.571" y="510.1293">LocalBackend</text><line style="stroke:#181818;stroke-width:0.5;" x1="774.51" x2="1057.4827" y1="520.8383" y2="520.8383"/><text fill="#000000" font-family="sans-serif" font-size="14" lengthAdjust="spacing" textLength="272.9727" x="779.51" y="538.3734">+reduce_chunk(request: ChunkRequest)</text><line style="stroke:#181818;stroke-width:1;" x1="774.51" x2="1057.4827" y1="545.3266" y2="545.3266"/><text fill="#000000" font-family="sans-serif" font-size="14" lengthAdjust="spacing" textLength="202.5762" x="779.51" y="562.8617">Does NOT use axis parameter</text><text fill="#000000" font-family="sans-serif" font-size="14" lengthAdjust="spacing" textLength="269.5752" x="779.51" y="579.35">(local numpy operations on full chunks)</text></g><!--class S3Backend--><g class="entity" data-entity="S3Backend" data-source-line="110" data-uid="ent0020" id="entity_S3Backend"><rect fill="#F1F1F1" height="97.4648" rx="2.5" ry="2.5" style="stroke:#181818;stroke-width:0.5;" width="284.9727" x="1093.51" y="488.8383"/><ellipse cx="1193.113" cy="504.8383" fill="#ADD1B2" rx="11" ry="11" style="stroke:#181818;stroke-width:1;"/><path d="M1195.5862,510.9813 Q1195.0051,511.2802 1194.366,511.4296 Q1193.7268,511.579 1193.0212,511.579 Q1190.5144,511.579 1189.1946,509.9271 Q1187.8747,508.2753 1187.8747,505.1542 Q1187.8747,502.0248 1189.1946,500.3729 Q1190.5144,498.7211 1193.0212,498.7211 Q1193.7268,498.7211 1194.3743,498.8705 Q1195.0217,499.0199 1195.5862,499.3188 L1195.5862,502.0414 Q1194.9553,501.4604 1194.3618,501.1906 Q1193.7683,500.9208 1193.1374,500.9208 Q1191.7927,500.9208 1191.1079,501.9875 Q1190.4231,503.0541 1190.4231,505.1542 Q1190.4231,507.246 1191.1079,508.3126 Q1191.7927,509.3793 1193.1374,509.3793 Q1193.7683,509.3793 1194.3618,509.1095 Q1194.9553,508.8397 1195.5862,508.2587 Z " fill="#000000"/><text fill="#000000" font-family="sans-serif" font-size="14" font-weight="bold" lengthAdjust="spacing" textLength="77.2666" x="1213.613" y="510.1293">S3Backend</text><line style="stroke:#181818;stroke-width:0.5;" x1="1094.51" x2="1377.4827" y1="520.8383" y2="520.8383"/><text fill="#000000" font-family="sans-serif" font-size="14" lengthAdjust="spacing" textLength="272.9727" x="1099.51" y="538.3734">+reduce_chunk(request: ChunkRequest)</text><line style="stroke:#181818;stroke-width:1;" x1="1094.51" x2="1377.4827" y1="545.3266" y2="545.3266"/><text fill="#000000" font-family="sans-serif" font-size="14" lengthAdjust="spacing" textLength="170.8711" x="1099.51" y="562.8617">Passes axis=request.axis</text><text fill="#000000" font-family="sans-serif" font-size="14" lengthAdjust="spacing" textLength="207.4092" x="1099.51" y="579.35">to reductionist.reduce_chunk()</text></g><!--class HttpsBackend--><g class="entity" data-entity="HttpsBackend" data-source-line="117" data-uid="ent0021" id="entity_HttpsBackend"><rect fill="#F1F1F1" height="97.4648" rx="2.5" ry="2.5" style="stroke:#181818;stroke-width:0.5;" width="284.9727" x="1413.51" y="488.8383"/><ellipse cx="1501.9978" cy="504.8383" fill="#ADD1B2" rx="11" ry="11" style="stroke:#181818;stroke-width:1;"/><path d="M1504.4709,510.9813 Q1503.8899,511.2802 1503.2507,511.4296 Q1502.6116,511.579 1501.906,511.579 Q1499.3992,511.579 1498.0793,509.9271 Q1496.7595,508.2753 1496.7595,505.1542 Q1496.7595,502.0248 1498.0793,500.3729 Q1499.3992,498.7211 1501.906,498.7211 Q1502.6116,498.7211 1503.259,498.8705 Q1503.9065,499.0199 1504.4709,499.3188 L1504.4709,502.0414 Q1503.8401,501.4604 1503.2466,501.1906 Q1502.6531,500.9208 1502.0222,500.9208 Q1500.6775,500.9208 1499.9927,501.9875 Q1499.3079,503.0541 1499.3079,505.1542 Q1499.3079,507.246 1499.9927,508.3126 Q1500.6775,509.3793 1502.0222,509.3793 Q1502.6531,509.3793 1503.2466,509.1095 Q1503.8401,508.8397 1504.4709,508.2587 Z " fill="#000000"/><text fill="#000000" font-family="sans-serif" font-size="14" font-weight="bold" lengthAdjust="spacing" textLength="99.4971" x="1522.4978" y="510.1293">HttpsBackend</text><line style="stroke:#181818;stroke-width:0.5;" x1="1414.51" x2="1697.4827" y1="520.8383" y2="520.8383"/><text fill="#000000" font-family="sans-serif" font-size="14" lengthAdjust="spacing" textLength="272.9727" x="1419.51" y="538.3734">+reduce_chunk(request: ChunkRequest)</text><line style="stroke:#181818;stroke-width:1;" x1="1414.51" x2="1697.4827" y1="545.3266" y2="545.3266"/><text fill="#000000" font-family="sans-serif" font-size="14" lengthAdjust="spacing" textLength="170.8711" x="1419.51" y="562.8617">Passes axis=request.axis</text><text fill="#000000" font-family="sans-serif" font-size="14" lengthAdjust="spacing" textLength="207.4092" x="1419.51" y="579.35">to reductionist.reduce_chunk()</text></g><!--class ReductionistAPI--><g class="entity" data-entity="ReductionistAPI" data-source-line="133" data-uid="ent0026" id="entity_ReductionistAPI"><rect fill="#F1F1F1" height="278.8359" rx="2.5" ry="2.5" style="stroke:#181818;stroke-width:0.5;" width="331.4092" x="1035.3" y="719.7883"/><ellipse cx="1139.842" cy="735.7883" fill="#ADD1B2" rx="11" ry="11" style="stroke:#181818;stroke-width:1;"/><path d="M1142.3151,741.9313 Q1141.7341,742.2302 1141.0949,742.3796 Q1140.4558,742.529 1139.7502,742.529 Q1137.2434,742.529 1135.9235,740.8771 Q1134.6037,739.2253 1134.6037,736.1042 Q1134.6037,732.9748 1135.9235,731.3229 Q1137.2434,729.6711 1139.7502,729.6711 Q1140.4558,729.6711 1141.1032,729.8205 Q1141.7507,729.9699 1142.3151,730.2688 L1142.3151,732.9914 Q1141.6843,732.4104 1141.0908,732.1406 Q1140.4973,731.8708 1139.8664,731.8708 Q1138.5217,731.8708 1137.8369,732.9375 Q1137.1521,734.0041 1137.1521,736.1042 Q1137.1521,738.196 1137.8369,739.2626 Q1138.5217,740.3293 1139.8664,740.3293 Q1140.4973,740.3293 1141.0908,740.0595 Q1141.6843,739.7897 1142.3151,739.2087 Z " fill="#000000"/><text fill="#000000" font-family="sans-serif" font-size="14" font-weight="bold" lengthAdjust="spacing" textLength="113.8252" x="1160.342" y="741.0793">ReductionistAPI</text><line style="stroke:#181818;stroke-width:0.5;" x1="1036.3" x2="1365.7092" y1="751.7883" y2="751.7883"/><text fill="#000000" font-family="sans-serif" font-size="14" lengthAdjust="spacing" textLength="110.0996" x="1041.3" y="769.3234">+reduce_chunk(</text><text fill="#000000" font-family="sans-serif" font-size="14" lengthAdjust="spacing" textLength="54.9746" x="1041.3" y="785.8117">session,</text><text fill="#000000" font-family="sans-serif" font-size="14" lengthAdjust="spacing" textLength="45.8691" x="1041.3" y="802.3">server,</text><text fill="#000000" font-family="sans-serif" font-size="14" lengthAdjust="spacing" textLength="49.5537" x="1041.3" y="818.7883">source,</text><text fill="#000000" font-family="sans-serif" font-size="14" lengthAdjust="spacing" textLength="79.3652" x="1041.3" y="835.2766">offset, size,</text><text fill="#000000" font-family="sans-serif" font-size="14" lengthAdjust="spacing" textLength="17.7188" x="1041.3" y="851.7648">...,</text><text fill="#000000" font-family="sans-serif" font-size="14" lengthAdjust="spacing" textLength="124.8926" x="1041.3" y="868.2531">axis: tuple | None,</text><text fill="#000000" font-family="sans-serif" font-size="14" lengthAdjust="spacing" textLength="96.6328" x="1041.3" y="884.7414">operation: str,</text><text fill="#000000" font-family="sans-serif" font-size="14" lengthAdjust="spacing" textLength="17.8418" x="1041.3" y="901.2297">...)</text><line style="stroke:#181818;stroke-width:1;" x1="1036.3" x2="1365.7092" y1="908.1828" y2="908.1828"/><text fill="#000000" font-family="sans-serif" font-size="14" font-weight="bold" lengthAdjust="spacing" textLength="104.2822" x="1041.3" y="925.718">Axis Handling:</text><text fill="#000000" font-family="sans-serif" font-size="14" lengthAdjust="spacing" textLength="258.501" x="1041.3" y="942.2063">-Performs reduction on remote server</text><text fill="#000000" font-family="sans-serif" font-size="14" lengthAdjust="spacing" textLength="224.3965" x="1041.3" y="958.6945">-Axis=(0,1): reduces first 2 dims</text><text fill="#000000" font-family="sans-serif" font-size="14" lengthAdjust="spacing" textLength="185.9307" x="1041.3" y="975.1828">-Axis=None: returns scalar</text><text fill="#000000" font-family="sans-serif" font-size="14" lengthAdjust="spacing" textLength="319.4092" x="1041.3" y="991.6711">-Returns shaped result for chunked reductions</text></g><g class="entity" data-entity="GMN27" data-source-line="152" data-uid="ent0028" id="entity_GMN27"><path d="M1401.73,815.9383 L1401.73,855.2083 L1366.98,859.2083 L1401.73,863.2083 L1401.73,902.491 A0,0 0 0 0 1401.73,902.491 L1698.2754,902.491 A0,0 0 0 0 1698.2754,902.491 L1698.2754,825.9383 L1688.2754,815.9383 L1401.73,815.9383 A0,0 0 0 0 1401.73,815.9383" fill="#FEFFDD" style="stroke:#181818;stroke-width:0.5;"/><path d="M1688.2754,815.9383 L1688.2754,825.9383 L1698.2754,825.9383 L1688.2754,815.9383" fill="#FEFFDD" style="stroke:#181818;stroke-width:0.5;"/><text fill="#000000" font-family="sans-serif" font-size="13" font-weight="bold" lengthAdjust="spacing" textLength="142.0542" x="1407.73" y="833.5066">V2 Protocol Features:</text><text fill="#000000" font-family="sans-serif" font-size="13" lengthAdjust="spacing" textLength="204.1597" x="1407.73" y="848.8172">- Added axis parameter support</text><text fill="#000000" font-family="sans-serif" font-size="13" lengthAdjust="spacing" textLength="223.6025" x="1407.73" y="864.1277">- Axis-aware server-side reduction</text><text fill="#000000" font-family="sans-serif" font-size="13" lengthAdjust="spacing" textLength="275.5454" x="1407.73" y="879.4383">- Enables efficient dimensionality reduction</text><text fill="#000000" font-family="sans-serif" font-size="13" lengthAdjust="spacing" textLength="258.9717" x="1407.73" y="894.7488">- Works with all compression/filter types</text></g><!--link Active to ChunkRequest--><g class="link" data-entity-1="Active" data-entity-2="ChunkRequest" data-source-line="57" data-uid="lnk8" id="link_Active_ChunkRequest"><path codeLine="57" d="M422.91,376.7683 C393.02,408.2083 366.2235,436.3892 340.1435,463.8292" fill="none" id="Active-to-ChunkRequest" style="stroke:#181818;stroke-width:1;"/><polygon fill="#181818" points="336.01,468.1783,345.1096,464.4104,339.4546,464.5541,339.3109,458.899,336.01,468.1783" style="stroke:#181818;stroke-width:1;"/><text fill="#000000" font-family="sans-serif" font-size="13" lengthAdjust="spacing" textLength="66.9106" x="391.71" y="419.9166">creates via</text><text fill="#000000" font-family="sans-serif" font-size="13" lengthAdjust="spacing" textLength="50.9907" x="399.67" y="435.2272">strategy</text></g><!--link Active to SelectionRequest--><g class="link" data-entity-1="Active" data-entity-2="SelectionRequest" data-source-line="58" data-uid="lnk9" id="link_Active_SelectionRequest"><path codeLine="58" d="M562.43,376.7683 C567.75,411.3483 572.3577,441.3281 576.8177,470.3181" fill="none" id="Active-to-SelectionRequest" style="stroke:#181818;stroke-width:1;"/><polygon fill="#181818" points="577.73,476.2483,580.315,466.7447,576.9697,471.3064,572.408,467.9612,577.73,476.2483" style="stroke:#181818;stroke-width:1;"/><text fill="#000000" font-family="sans-serif" font-size="13" lengthAdjust="spacing" textLength="66.9106" x="572.51" y="419.9166">creates via</text><text fill="#000000" font-family="sans-serif" font-size="13" lengthAdjust="spacing" textLength="50.9907" x="580.47" y="435.2272">strategy</text></g><!--link ChunkRequest to ChunkResult--><g class="link" data-entity-1="ChunkRequest" data-entity-2="ChunkResult" data-source-line="59" data-uid="lnk10" id="link_ChunkRequest_ChunkResult"><path codeLine="59" d="M268.21,607.1383 C266.13,658.3183 263.5229,722.2832 261.3729,775.3532" fill="none" id="ChunkRequest-to-ChunkResult" style="stroke:#181818;stroke-width:1;"/><polygon fill="#181818" points="261.13,781.3483,265.491,772.5176,261.3324,776.3524,257.4976,772.1937,261.13,781.3483" style="stroke:#181818;stroke-width:1;"/><text fill="#000000" font-family="sans-serif" font-size="13" lengthAdjust="spacing" textLength="86.709" x="267.8" y="650.3566">received from</text><text fill="#000000" font-family="sans-serif" font-size="13" lengthAdjust="spacing" textLength="53.1108" x="284.5991" y="665.6672">backend</text></g><!--reverse link StorageBackend to LocalBackend--><g class="link" data-entity-1="StorageBackend" data-entity-2="LocalBackend" data-source-line="125" data-uid="lnk22" id="link_StorageBackend_LocalBackend"><path codeLine="125" d="M1108.8625,364.107 C1056.9425,410.537 1011.33,451.3283 969.76,488.4983" fill="none" id="StorageBackend-backto-LocalBackend" style="stroke:#181818;stroke-width:1;"/><polygon fill="none" points="1122.28,352.1083,1104.8629,359.6345,1112.8621,368.5795,1122.28,352.1083" style="stroke:#181818;stroke-width:1;"/></g><!--reverse link StorageBackend to S3Backend--><g class="link" data-entity-1="StorageBackend" data-entity-2="S3Backend" data-source-line="126" data-uid="lnk23" id="link_StorageBackend_S3Backend"><path codeLine="126" d="M1236,370.1083 C1236,416.5383 1236,451.3283 1236,488.4983" fill="none" id="StorageBackend-backto-S3Backend" style="stroke:#181818;stroke-width:1;"/><polygon fill="none" points="1236,352.1083,1230,370.1083,1242,370.1083,1236,352.1083" style="stroke:#181818;stroke-width:1;"/></g><!--reverse link StorageBackend to HttpsBackend--><g class="link" data-entity-1="StorageBackend" data-entity-2="HttpsBackend" data-source-line="127" data-uid="lnk24" id="link_StorageBackend_HttpsBackend"><path codeLine="127" d="M1363.1375,364.107 C1415.0575,410.537 1460.67,451.3283 1502.24,488.4983" fill="none" id="StorageBackend-backto-HttpsBackend" style="stroke:#181818;stroke-width:1;"/><polygon fill="none" points="1349.72,352.1083,1359.1379,368.5795,1367.1371,359.6345,1349.72,352.1083" style="stroke:#181818;stroke-width:1;"/></g><!--link S3Backend to ReductionistAPI--><g class="link" data-entity-1="S3Backend" data-entity-2="ReductionistAPI" data-source-line="160" data-uid="lnk30" id="link_S3Backend_ReductionistAPI"><path codeLine="160" d="M1230.72,586.7683 C1226.85,622.1783 1222.0236,666.214 1216.8236,713.664" fill="none" id="S3Backend-to-ReductionistAPI" style="stroke:#181818;stroke-width:1;"/><polygon fill="#181818" points="1216.17,719.6283,1221.1266,711.1176,1216.7147,714.658,1213.1742,710.2461,1216.17,719.6283" style="stroke:#181818;stroke-width:1;"/><text fill="#000000" font-family="sans-serif" font-size="13" lengthAdjust="spacing" textLength="58.7983" x="1252.8131" y="650.3566">calls with</text><text fill="#000000" font-family="sans-serif" font-size="13" lengthAdjust="spacing" textLength="113.0645" x="1225.68" y="665.6672">axis=request.axis</text></g><!--link HttpsBackend to ReductionistAPI--><g class="link" data-entity-1="HttpsBackend" data-entity-2="ReductionistAPI" data-source-line="161" data-uid="lnk31" id="link_HttpsBackend_ReductionistAPI"><path codeLine="161" d="M1493.02,586.6283 C1459.89,612.5383 1419,645.5283 1384,676.7883 C1368.82,690.3483 1357.5906,700.6759 1342.2606,715.3059" fill="none" id="HttpsBackend-to-ReductionistAPI" style="stroke:#181818;stroke-width:1;"/><polygon fill="#181818" points="1337.92,719.4483,1347.1925,716.1284,1341.5372,715.9963,1341.6693,710.341,1337.92,719.4483" style="stroke:#181818;stroke-width:1;"/><text fill="#000000" font-family="sans-serif" font-size="13" lengthAdjust="spacing" textLength="58.7983" x="1458.1131" y="650.3566">calls with</text><text fill="#000000" font-family="sans-serif" font-size="13" lengthAdjust="spacing" textLength="113.0645" x="1430.98" y="665.6672">axis=request.axis</text></g><!--SRC=[pLVDRkCs4BxhAGQ-sCxQpi-Y5wCfuBORx0BRD4ZIvj0K0IsDRC8IgP9K4hVPwpv07x5FqY4foPHifybY3nKCs2O_pk_7cP7X9aFepHwvXWkcM8u65LoLHI6LWPcAbznWR4g5lIZIAouA2u8uOrhFZ55yNXhy44jnnVz4EEf2pgGmLsPDAkOoIuBTWiKhja2_fqW34uiCewXQXnwB3Rz7RQIYlvDOaW7mLnG1FKuop1o0rg1wnd37o8qfcB8WeKzmBWLkTiVDppUGSp7mM2uC8SCJGvY2nYmDuUpnLN1ahnAlo_pbSF9oWUQErYXeN8f1yyj2cL9i7M9J9VExAeg3oMGoWY16EqviedHmu4Xnbic7wS51i_oB9dx4BCiq-McMCd6cdvuFuP_FVpSegn4r-UDpqjehTRNJzgCjeA0K4yp8ZWj3X_WK4k67PIbMb_X7IMm9wH0c_6N4g5mcDXl6XGxT7iErEonJI7YEGfF9pZo5IHa7qk3T8yi9EON1qGYEXniCf5oHXITMW0uEM6iSPtGDfEZ2G5EGcQ8bNMPcXzjNTUI-akitInGsDqdRxPkbp73iMEBDioefFMOP-l0HjOrRdjEUMJ81iKqA9W5mLywiQ_liJfXXKn35H2HU-nC5BZO18fQbCFMbsU_O9LBv4d3FCWeJ95YWI83iT85f-UgOJ6ax7jAbMx82guGaC5zlvytpdjGIsETAAcUY9ObV2U4KdOB0mkZJQrNI8UNiqlx80pTBw5Cbw5ifVKk7FZ0oj2_wOVYggZSUVzVc_HHYXSoGW_UStGfj5FrPhBjdjaZptBcMWa2ZovgrFqQIcu2zeBTYJfMR8Xj5GXg435CN1wyxidceBWPL4Bh8Fl27Xt1PKrwAHNL3NCMG8hDM-3O0fvMWGI_b6Kv4t1j1ps1U8DbhcvEz8Fwg4DOVcZHr-FHe-DlqTqBKAXtEPPYkwJ4b_6W8FAN8ymKNBBDhTj6k1wUQkyaUVMdoINvMiwlXNdcZkU6BesIZu2VQuZP0LlmEeNMRi0mz6LgXBSkqD-l8iUPa12l4GljO7aUMyZOlLNRcqXYPs_nq2H5TB-a0VGW7tEQBYft196A6BZRLAMd_ZuYl58UChv2oDCSGMIMH2dpnZS8ygdWn2MpujBVFLs3Tz7esjvIa2r8LFO_xtiFsbGv_Q-zS3HeexzYqHMVR-G8sRv_TzANcV3TKLaQmrfAptLJUKreoBXPXnVaeYGULBrJ75i8rJPko1j9-1gvtri4AtHms9wxUDXAh9kf8KxansIUzRbFM6KwuLWmtqjyRK-WlKl0o7Qqk4SOdoFMB4hmh5JzAClRyvslRvlpDAEgHjy4CCgiKH9aNQv2klhXMJmqZBOdpJgVUrO_VVaLBB_uhiAyDPPYt_v61xhjpgRzz6ezRgTyBQaA-5n6w_LpT2Ks5mVq9p2u-33il79S1XhRtHx75VegIdHL7dKLrZwgp9aiLOtjDfgb6ghQQNgxQEtQKRoriZtaTKJMLgViOjILi-ChIDOOBLAbKkGwcGlfGnRSDnZiOe6V1QAMgVhLd7fvjvgfwH6eQROsvh3Ti3q_gLadsD8DdOrLh-dJTZxhyqWqddOn6jTU_di25aaR6CeCpT0D6C2cIXKb26je5XDxYt3jp5BenPWzCrT4OQvxWngu6-4wmUKRXm3JbCQSUkdd3O1atwnr7RgHQQJypsdd4ZfRAy-oGvYDhZLaNw3rlsYw5O5EZx3ZN9VIqUg-pSc_5zjLkrP0l4K3Flm00]--></g></svg>