<svg xmlns="http://www.w3.org/2000/svg" xmlns:xlink="http://www.w3.org/1999/xlink" contentStyleType="text/css" data-diagram-type="SEQUENCE" height="1697px" preserveAspectRatio="none" style="width:878px;height:1697px;background:#FFFFFF;" version="1.1" viewBox="0 0 878 1697" width="878px" zoomAndPan="magnify"><defs/><g><g><title>User Code</title><rect fill="#000000" fill-opacity="0.00000" height="1592.7695" width="8" x="42.8462" y="52.9766"/><line style="stroke:#181818;stroke-width:0.5;stroke-dasharray:5,5;" x1="46" x2="46" y1="52.9766" y2="1645.7461"/></g><g><title>p5remSession</title><rect fill="#000000" fill-opacity="0.00000" height="1592.7695" width="8" x="247.2275" y="52.9766"/><line style="stroke:#181818;stroke-width:0.5;stroke-dasharray:5,5;" x1="250.6221" x2="250.6221" y1="52.9766" y2="1645.7461"/></g><g><title>Client</title><rect fill="#000000" fill-opacity="0.00000" height="1592.7695" width="8" x="493.8398" y="52.9766"/><line style="stroke:#181818;stroke-width:0.5;stroke-dasharray:5,5;" x1="496.9736" x2="496.9736" y1="52.9766" y2="1645.7461"/></g><g><title>Remote Server</title><rect fill="#000000" fill-opacity="0.00000" height="1592.7695" width="8" x="679.9019" y="52.9766"/><line style="stroke:#181818;stroke-width:0.5;stroke-dasharray:5,5;" x1="683.7344" x2="683.7344" y1="52.9766" y2="1645.7461"/></g><g class="participant participant-head" data-participant="User"><rect fill="#E2E2F0" height="30.4883" rx="2.5" ry="2.5" style="stroke:#181818;stroke-width:0.5;" width="83.6924" x="5" y="21.4883"/><text fill="#000000" font-family="sans-serif" font-size="14" lengthAdjust="spacing" textLength="69.6924" x="12" y="42.0234">User Code</text></g><g class="participant participant-tail" data-participant="User"><rect fill="#E2E2F0" height="30.4883" rx="2.5" ry="2.5" style="stroke:#181818;stroke-width:0.5;" width="83.6924" x="5" y="1644.7461"/><text fill="#000000" font-family="sans-serif" font-size="14" lengthAdjust="spacing" textLength="69.6924" x="12" y="1665.2813">User Code</text></g><g class="participant participant-head" data-participant="Session"><rect fill="#E2E2F0" height="30.4883" rx="2.5" ry="2.5" style="stroke:#181818;stroke-width:0.5;" width="109.2109" x="196.6221" y="21.4883"/><text fill="#000000" font-family="sans-serif" font-size="14" lengthAdjust="spacing" textLength="95.2109" x="203.6221" y="42.0234">p5remSession</text></g><g class="participant participant-tail" data-participant="Session"><rect fill="#E2E2F0" height="30.4883" rx="2.5" ry="2.5" style="stroke:#181818;stroke-width:0.5;" width="109.2109" x="196.6221" y="1644.7461"/><text fill="#000000" font-family="sans-serif" font-size="14" lengthAdjust="spacing" textLength="95.2109" x="203.6221" y="1665.2813">p5remSession</text></g><g class="participant participant-head" data-participant="Client"><rect fill="#E2E2F0" height="46.9766" rx="2.5" ry="2.5" style="stroke:#181818;stroke-width:0.5;" width="115.7324" x="439.9736" y="5"/><text fill="#000000" font-family="sans-serif" font-size="14" lengthAdjust="spacing" textLength="39.5049" x="478.0874" y="25.5352">Client</text><text fill="#000000" font-family="sans-serif" font-size="14" lengthAdjust="spacing" textLength="101.7324" x="446.9736" y="42.0234">(Paramiko SSH)</text></g><g class="participant participant-tail" data-participant="Client"><rect fill="#E2E2F0" height="46.9766" rx="2.5" ry="2.5" style="stroke:#181818;stroke-width:0.5;" width="115.7324" x="439.9736" y="1644.7461"/><text fill="#000000" font-family="sans-serif" font-size="14" lengthAdjust="spacing" textLength="39.5049" x="478.0874" y="1665.2813">Client</text><text fill="#000000" font-family="sans-serif" font-size="14" lengthAdjust="spacing" textLength="101.7324" x="446.9736" y="1681.7695">(Paramiko SSH)</text></g><g class="participant participant-head" data-participant="Server"><rect fill="#E2E2F0" height="46.9766" rx="2.5" ry="2.5" style="stroke:#181818;stroke-width:0.5;" width="140.335" x="613.7344" y="5"/><text fill="#000000" font-family="sans-serif" font-size="14" lengthAdjust="spacing" textLength="97.6309" x="635.0864" y="25.5352">Remote Server</text><text fill="#000000" font-family="sans-serif" font-size="14" lengthAdjust="spacing" textLength="126.335" x="620.7344" y="42.0234">(remote_server.py)</text></g><g class="participant participant-tail" data-participant="Server"><rect fill="#E2E2F0" height="46.9766" rx="2.5" ry="2.5" style="stroke:#181818;stroke-width:0.5;" width="140.335" x="613.7344" y="1644.7461"/><text fill="#000000" font-family="sans-serif" font-size="14" lengthAdjust="spacing" textLength="97.6309" x="635.0864" y="1665.2813">Remote Server</text><text fill="#000000" font-family="sans-serif" font-size="14" lengthAdjust="spacing" textLength="126.335" x="620.7344" y="1681.7695">(remote_server.py)</text></g><g class="message" data-participant-1="User" data-participant-2="Session"><polygon fill="#181818" points="239.2275,80.2871,249.2275,84.2871,239.2275,88.2871,243.2275,84.2871" style="stroke:#181818;stroke-width:1;"/><line style="stroke:#181818;stroke-width:1;" x1="46.8462" x2="245.2275" y1="84.2871" y2="84.2871"/><text fill="#000000" font-family="sans-serif" font-size="13" lengthAdjust="spacing" textLength="123.0747" x="53.8462" y="79.5449">bootstrap_session()</text></g><g class="message" data-participant-1="Session" data-participant-2="Client"><polygon fill="#181818" points="485.8398,124.9082,495.8398,128.9082,485.8398,132.9082,489.8398,128.9082" style="stroke:#181818;stroke-width:1;"/><line style="stroke:#181818;stroke-width:1;" x1="251.2275" x2="491.8398" y1="128.9082" y2="128.9082"/><text fill="#000000" font-family="sans-serif" font-size="13" lengthAdjust="spacing" textLength="77.2129" x="258.2275" y="108.8555">SSH connect</text><text fill="#000000" font-family="sans-serif" font-size="13" lengthAdjust="spacing" textLength="169.5015" x="258.2275" y="124.166">&amp; upload remote_server.py</text></g><g class="message" data-participant-1="Client" data-participant-2="Server"><polygon fill="#181818" points="671.9019,154.2188,681.9019,158.2188,671.9019,162.2188,675.9019,158.2188" style="stroke:#181818;stroke-width:1;"/><line style="stroke:#181818;stroke-width:1;" x1="497.8398" x2="677.9019" y1="158.2188" y2="158.2188"/><text fill="#000000" font-family="sans-serif" font-size="13" lengthAdjust="spacing" textLength="162.062" x="504.8398" y="153.4766">Execute remote_server.py</text></g><rect fill="#EEEEEE" height="3" style="stroke:#EEEEEE;stroke-width:1;" width="871.2246" x="0" y="186.874"/><line style="stroke:#000000;stroke-width:1;" x1="0" x2="871.2246" y1="186.874" y2="186.874"/><line style="stroke:#000000;stroke-width:1;" x1="0" x2="871.2246" y1="189.874" y2="189.874"/><rect fill="#EEEEEE" height="23.3105" style="stroke:#000000;stroke-width:2;" width="204.6392" x="333.2927" y="176.2188"/><text fill="#000000" font-family="sans-serif" font-size="13" font-weight="bold" lengthAdjust="spacing" textLength="186.3545" x="339.2927" y="192.7871">session.open(REMOTE_FILE)</text><g class="message" data-participant-1="User" data-participant-2="Session"><polygon fill="#181818" points="239.2275,226.8398,249.2275,230.8398,239.2275,234.8398,243.2275,230.8398" style="stroke:#181818;stroke-width:1;"/><line style="stroke:#181818;stroke-width:1;" x1="46.8462" x2="245.2275" y1="230.8398" y2="230.8398"/><text fill="#000000" font-family="sans-serif" font-size="13" lengthAdjust="spacing" textLength="68.2246" x="53.8462" y="226.0977">open(path)</text></g><g class="message" data-participant-1="Session" data-participant-2="Session"><line style="stroke:#181818;stroke-width:1;" x1="251.2275" x2="293.2275" y1="260.1504" y2="260.1504"/><line style="stroke:#181818;stroke-width:1;" x1="293.2275" x2="293.2275" y1="260.1504" y2="273.1504"/><line style="stroke:#181818;stroke-width:1;" x1="252.2275" x2="293.2275" y1="273.1504" y2="273.1504"/><polygon fill="#181818" points="262.2275,269.1504,252.2275,273.1504,262.2275,277.1504,258.2275,273.1504" style="stroke:#181818;stroke-width:1;"/><text fill="#000000" font-family="sans-serif" font-size="13" lengthAdjust="spacing" textLength="110.0303" x="258.2275" y="255.4082">create rFile proxy</text></g><g class="message" data-participant-1="Session" data-participant-2="Client"><polygon fill="#181818" points="485.8398,298.4609,495.8398,302.4609,485.8398,306.4609,489.8398,302.4609" style="stroke:#181818;stroke-width:1;"/><line style="stroke:#181818;stroke-width:1;" x1="251.2275" x2="491.8398" y1="302.4609" y2="302.4609"/><text fill="#000000" font-family="sans-serif" font-size="13" lengthAdjust="spacing" textLength="116.7842" x="258.2275" y="297.7188">FILE_OPEN request</text></g><g class="message" data-participant-1="Client" data-participant-2="Server"><polygon fill="#181818" points="671.9019,343.082,681.9019,347.082,671.9019,351.082,675.9019,347.082" style="stroke:#181818;stroke-width:1;"/><line style="stroke:#181818;stroke-width:1;" x1="497.8398" x2="677.9019" y1="347.082" y2="347.082"/><text fill="#000000" font-family="sans-serif" font-size="13" lengthAdjust="spacing" textLength="118.4854" x="504.8398" y="327.0293">{type: "FILE_OPEN",</text><text fill="#000000" font-family="sans-serif" font-size="13" lengthAdjust="spacing" textLength="147.9258" x="504.8398" y="342.3398">path: "p5test/test1.nc"}</text></g><g class="message" data-participant-1="Server" data-participant-2="Server"><line style="stroke:#181818;stroke-width:1;" x1="683.9019" x2="725.9019" y1="376.3926" y2="376.3926"/><line style="stroke:#181818;stroke-width:1;" x1="725.9019" x2="725.9019" y1="376.3926" y2="389.3926"/><line style="stroke:#181818;stroke-width:1;" x1="684.9019" x2="725.9019" y1="389.3926" y2="389.3926"/><polygon fill="#181818" points="694.9019,385.3926,684.9019,389.3926,694.9019,393.3926,690.9019,389.3926" style="stroke:#181818;stroke-width:1;"/><text fill="#000000" font-family="sans-serif" font-size="13" lengthAdjust="spacing" textLength="100.0708" x="690.9019" y="371.6504">pyfive.File(path)</text></g><g class="message" data-participant-1="Server" data-participant-2="Client"><polygon fill="#181818" points="508.8398,414.7031,498.8398,418.7031,508.8398,422.7031,504.8398,418.7031" style="stroke:#181818;stroke-width:1;"/><line style="stroke:#181818;stroke-width:1;" x1="502.8398" x2="682.9019" y1="418.7031" y2="418.7031"/><text fill="#000000" font-family="sans-serif" font-size="13" lengthAdjust="spacing" textLength="123.0176" x="514.8398" y="413.9609">FILE_INFO response</text></g><g class="message" data-participant-1="Client" data-participant-2="Session"><polygon fill="#181818" points="262.2275,459.3242,252.2275,463.3242,262.2275,467.3242,258.2275,463.3242" style="stroke:#181818;stroke-width:1;"/><line style="stroke:#181818;stroke-width:1;" x1="256.2275" x2="496.8398" y1="463.3242" y2="463.3242"/><text fill="#000000" font-family="sans-serif" font-size="13" lengthAdjust="spacing" textLength="114.9688" x="268.2275" y="443.2715">{type: "FILE_INFO",</text><text fill="#000000" font-family="sans-serif" font-size="13" lengthAdjust="spacing" textLength="196.5361" x="268.2275" y="458.582">keys: [...], attrs: {...}, mtime: ...}</text></g><g class="message" data-participant-1="Session" data-participant-2="User"><polygon fill="#181818" points="57.8462,488.6348,47.8462,492.6348,57.8462,496.6348,53.8462,492.6348" style="stroke:#181818;stroke-width:1;"/><line style="stroke:#181818;stroke-width:1;" x1="51.8462" x2="250.2275" y1="492.6348" y2="492.6348"/><text fill="#000000" font-family="sans-serif" font-size="13" lengthAdjust="spacing" textLength="67.4121" x="63.8462" y="487.8926">rFile proxy</text></g><rect fill="#EEEEEE" height="3" style="stroke:#EEEEEE;stroke-width:1;" width="871.2246" x="0" y="521.29"/><line style="stroke:#000000;stroke-width:1;" x1="0" x2="871.2246" y1="521.29" y2="521.29"/><line style="stroke:#000000;stroke-width:1;" x1="0" x2="871.2246" y1="524.29" y2="524.29"/><rect fill="#EEEEEE" height="23.3105" style="stroke:#000000;stroke-width:2;" width="168.2671" x="351.4788" y="510.6348"/><text fill="#000000" font-family="sans-serif" font-size="13" font-weight="bold" lengthAdjust="spacing" textLength="149.9824" x="357.4788" y="527.2031">remote_file[VARIABLE]</text><g class="message" data-participant-1="User" data-participant-2="Session"><polygon fill="#181818" points="239.2275,561.2559,249.2275,565.2559,239.2275,569.2559,243.2275,565.2559" style="stroke:#181818;stroke-width:1;"/><line style="stroke:#181818;stroke-width:1;" x1="46.8462" x2="245.2275" y1="565.2559" y2="565.2559"/><text fill="#000000" font-family="sans-serif" font-size="13" lengthAdjust="spacing" text-decoration="underline" textLength="48.2104" x="53.8462" y="560.5137">getitem</text><text fill="#000000" font-family="sans-serif" font-size="13" lengthAdjust="spacing" textLength="36.8354" x="102.0566" y="560.5137">("tas")</text></g><g class="message" data-participant-1="Session" data-participant-2="Session"><line style="stroke:#181818;stroke-width:1;" x1="251.2275" x2="293.2275" y1="594.5664" y2="594.5664"/><line style="stroke:#181818;stroke-width:1;" x1="293.2275" x2="293.2275" y1="594.5664" y2="607.5664"/><line style="stroke:#181818;stroke-width:1;" x1="252.2275" x2="293.2275" y1="607.5664" y2="607.5664"/><polygon fill="#181818" points="262.2275,603.5664,252.2275,607.5664,262.2275,611.5664,258.2275,607.5664" style="stroke:#181818;stroke-width:1;"/><text fill="#000000" font-family="sans-serif" font-size="13" lengthAdjust="spacing" textLength="135.9922" x="258.2275" y="589.8242">create rDataset proxy</text></g><g class="message" data-participant-1="Session" data-participant-2="User"><polygon fill="#181818" points="57.8462,632.877,47.8462,636.877,57.8462,640.877,53.8462,636.877" style="stroke:#181818;stroke-width:1;"/><line style="stroke:#181818;stroke-width:1;" x1="51.8462" x2="250.2275" y1="636.877" y2="636.877"/><text fill="#000000" font-family="sans-serif" font-size="13" lengthAdjust="spacing" textLength="93.374" x="63.8462" y="632.1348">rDataset proxy</text></g><rect fill="#EEEEEE" height="3" style="stroke:#EEEEEE;stroke-width:1;" width="871.2246" x="0" y="665.5322"/><line style="stroke:#000000;stroke-width:1;" x1="0" x2="871.2246" y1="665.5322" y2="665.5322"/><line style="stroke:#000000;stroke-width:1;" x1="0" x2="871.2246" y1="668.5322" y2="668.5322"/><rect fill="#EEEEEE" height="23.3105" style="stroke:#000000;stroke-width:2;" width="251.7388" x="309.7429" y="654.877"/><text fill="#000000" font-family="sans-serif" font-size="13" font-weight="bold" lengthAdjust="spacing" textLength="233.4541" x="315.7429" y="671.4453">remote_file[VARIABLE][SELECTION]</text><g class="message" data-participant-1="User" data-participant-2="Session"><polygon fill="#181818" points="239.2275,720.8086,249.2275,724.8086,239.2275,728.8086,243.2275,724.8086" style="stroke:#181818;stroke-width:1;"/><line style="stroke:#181818;stroke-width:1;" x1="46.8462" x2="245.2275" y1="724.8086" y2="724.8086"/><text fill="#000000" font-family="sans-serif" font-size="13" lengthAdjust="spacing" textLength="57.1226" x="53.8462" y="704.7559">rDataset.</text><text fill="#000000" font-family="sans-serif" font-size="13" lengthAdjust="spacing" text-decoration="underline" textLength="48.2104" x="110.9688" y="704.7559">getitem</text><text fill="#000000" font-family="sans-serif" font-size="13" lengthAdjust="spacing" textLength="180.3813" x="53.8462" y="720.0664">((0, slice(None), slice(None)))</text></g><g class="message" data-participant-1="Session" data-participant-2="Session"><line style="stroke:#181818;stroke-width:1;" x1="251.2275" x2="293.2275" y1="769.4297" y2="769.4297"/><line style="stroke:#181818;stroke-width:1;" x1="293.2275" x2="293.2275" y1="769.4297" y2="782.4297"/><line style="stroke:#181818;stroke-width:1;" x1="252.2275" x2="293.2275" y1="782.4297" y2="782.4297"/><polygon fill="#181818" points="262.2275,778.4297,252.2275,782.4297,262.2275,786.4297,258.2275,782.4297" style="stroke:#181818;stroke-width:1;"/><text fill="#000000" font-family="sans-serif" font-size="13" lengthAdjust="spacing" textLength="88.9434" x="258.2275" y="749.377">ensure_meta()</text><text fill="#000000" font-family="sans-serif" font-size="13" lengthAdjust="spacing" textLength="136.4492" x="262.3408" y="764.6875">&#8212; lazy metadata load</text></g><g class="message" data-participant-1="Session" data-participant-2="Client"><polygon fill="#181818" points="485.8398,807.7402,495.8398,811.7402,485.8398,815.7402,489.8398,811.7402" style="stroke:#181818;stroke-width:1;"/><line style="stroke:#181818;stroke-width:1;" x1="251.2275" x2="491.8398" y1="811.7402" y2="811.7402"/><text fill="#000000" font-family="sans-serif" font-size="13" lengthAdjust="spacing" textLength="117.7808" x="258.2275" y="806.998">VAR_OPEN request</text></g><g class="message" data-participant-1="Client" data-participant-2="Server"><polygon fill="#181818" points="671.9019,867.6719,681.9019,871.6719,671.9019,875.6719,675.9019,871.6719" style="stroke:#181818;stroke-width:1;"/><line style="stroke:#181818;stroke-width:1;" x1="497.8398" x2="677.9019" y1="871.6719" y2="871.6719"/><text fill="#000000" font-family="sans-serif" font-size="13" lengthAdjust="spacing" textLength="119.4819" x="504.8398" y="836.3086">{type: "VAR_OPEN",</text><text fill="#000000" font-family="sans-serif" font-size="13" lengthAdjust="spacing" textLength="147.8115" x="504.8398" y="851.6191">path: "p5test/test1.nc",</text><text fill="#000000" font-family="sans-serif" font-size="13" lengthAdjust="spacing" textLength="94.688" x="504.8398" y="866.9297">varname: "tas"}</text></g><g class="message" data-participant-1="Server" data-participant-2="Server"><line style="stroke:#181818;stroke-width:1;" x1="683.9019" x2="725.9019" y1="900.9824" y2="900.9824"/><line style="stroke:#181818;stroke-width:1;" x1="725.9019" x2="725.9019" y1="900.9824" y2="913.9824"/><line style="stroke:#181818;stroke-width:1;" x1="684.9019" x2="725.9019" y1="913.9824" y2="913.9824"/><polygon fill="#181818" points="694.9019,909.9824,684.9019,913.9824,694.9019,917.9824,690.9019,913.9824" style="stroke:#181818;stroke-width:1;"/><text fill="#000000" font-family="sans-serif" font-size="13" lengthAdjust="spacing" textLength="121.0688" x="690.9019" y="896.2402">dataset = file["tas"]</text></g><g class="message" data-participant-1="Server" data-participant-2="Server"><line style="stroke:#181818;stroke-width:1;" x1="683.9019" x2="725.9019" y1="958.6035" y2="958.6035"/><line style="stroke:#181818;stroke-width:1;" x1="725.9019" x2="725.9019" y1="958.6035" y2="971.6035"/><line style="stroke:#181818;stroke-width:1;" x1="684.9019" x2="725.9019" y1="971.6035" y2="971.6035"/><polygon fill="#181818" points="694.9019,967.6035,684.9019,971.6035,694.9019,975.6035,690.9019,971.6035" style="stroke:#181818;stroke-width:1;"/><text fill="#000000" font-family="sans-serif" font-size="13" lengthAdjust="spacing" textLength="44.0972" x="690.9019" y="938.5508">extract</text><text fill="#000000" font-family="sans-serif" font-size="13" lengthAdjust="spacing" textLength="173.3228" x="690.9019" y="953.8613">shape/dtype/chunks/index</text></g><g class="message" data-participant-1="Server" data-participant-2="Client"><polygon fill="#181818" points="508.8398,996.9141,498.8398,1000.9141,508.8398,1004.9141,504.8398,1000.9141" style="stroke:#181818;stroke-width:1;"/><line style="stroke:#181818;stroke-width:1;" x1="502.8398" x2="682.9019" y1="1000.9141" y2="1000.9141"/><text fill="#000000" font-family="sans-serif" font-size="13" lengthAdjust="spacing" textLength="124.0142" x="514.8398" y="996.1719">VAR_INFO response</text></g><g class="message" data-participant-1="Client" data-participant-2="Session"><polygon fill="#181818" points="262.2275,1056.8457,252.2275,1060.8457,262.2275,1064.8457,258.2275,1060.8457" style="stroke:#181818;stroke-width:1;"/><line style="stroke:#181818;stroke-width:1;" x1="256.2275" x2="496.8398" y1="1060.8457" y2="1060.8457"/><text fill="#000000" font-family="sans-serif" font-size="13" lengthAdjust="spacing" textLength="115.9653" x="268.2275" y="1025.4824">{type: "VAR_INFO",</text><text fill="#000000" font-family="sans-serif" font-size="13" lengthAdjust="spacing" textLength="176.8647" x="268.2275" y="1040.793">shape: [...], dtype: "float32",</text><text fill="#000000" font-family="sans-serif" font-size="13" lengthAdjust="spacing" textLength="89.0386" x="268.2275" y="1056.1035">index: [...], ...}</text></g><g class="message" data-participant-1="Session" data-participant-2="Session"><line style="stroke:#181818;stroke-width:1;" x1="251.2275" x2="293.2275" y1="1090.1563" y2="1090.1563"/><line style="stroke:#181818;stroke-width:1;" x1="293.2275" x2="293.2275" y1="1090.1563" y2="1103.1563"/><line style="stroke:#181818;stroke-width:1;" x1="252.2275" x2="293.2275" y1="1103.1563" y2="1103.1563"/><polygon fill="#181818" points="262.2275,1099.1563,252.2275,1103.1563,262.2275,1107.1563,258.2275,1103.1563" style="stroke:#181818;stroke-width:1;"/><text fill="#000000" font-family="sans-serif" font-size="13" lengthAdjust="spacing" textLength="192.0801" x="258.2275" y="1085.4141">id.get_data(selection, fillvalue)</text></g><g class="message" data-participant-1="Session" data-participant-2="Client"><polygon fill="#181818" points="485.8398,1128.4668,495.8398,1132.4668,485.8398,1136.4668,489.8398,1132.4668" style="stroke:#181818;stroke-width:1;"/><line style="stroke:#181818;stroke-width:1;" x1="251.2275" x2="491.8398" y1="1132.4668" y2="1132.4668"/><text fill="#000000" font-family="sans-serif" font-size="13" lengthAdjust="spacing" textLength="143.5459" x="258.2275" y="1127.7246">GET_CHUNK request(s)</text></g><g class="message" data-participant-1="Client" data-participant-2="Server"><polygon fill="#181818" points="671.9019,1188.3984,681.9019,1192.3984,671.9019,1196.3984,675.9019,1192.3984" style="stroke:#181818;stroke-width:1;"/><line style="stroke:#181818;stroke-width:1;" x1="497.8398" x2="677.9019" y1="1192.3984" y2="1192.3984"/><text fill="#000000" font-family="sans-serif" font-size="13" lengthAdjust="spacing" textLength="130.165" x="504.8398" y="1157.0352">{type: "GET_CHUNK",</text><text fill="#000000" font-family="sans-serif" font-size="13" lengthAdjust="spacing" textLength="161.3701" x="504.8398" y="1172.3457">path: "...", varname: "tas",</text><text fill="#000000" font-family="sans-serif" font-size="13" lengthAdjust="spacing" textLength="148.5225" x="504.8398" y="1187.6563">byte_offset: ..., size: ...}</text></g><g class="message" data-participant-1="Server" data-participant-2="Server"><line style="stroke:#181818;stroke-width:1;" x1="683.9019" x2="725.9019" y1="1221.709" y2="1221.709"/><line style="stroke:#181818;stroke-width:1;" x1="725.9019" x2="725.9019" y1="1221.709" y2="1234.709"/><line style="stroke:#181818;stroke-width:1;" x1="684.9019" x2="725.9019" y1="1234.709" y2="1234.709"/><polygon fill="#181818" points="694.9019,1230.709,684.9019,1234.709,694.9019,1238.709,690.9019,1234.709" style="stroke:#181818;stroke-width:1;"/><text fill="#000000" font-family="sans-serif" font-size="13" lengthAdjust="spacing" textLength="165.769" x="690.9019" y="1216.9668">_get_raw_chunk(storeinfo)</text></g><g class="message" data-participant-1="Server" data-participant-2="Client"><polygon fill="#181818" points="508.8398,1260.0195,498.8398,1264.0195,508.8398,1268.0195,504.8398,1264.0195" style="stroke:#181818;stroke-width:1;"/><line style="stroke:#181818;stroke-width:1;" x1="502.8398" x2="682.9019" y1="1264.0195" y2="1264.0195"/><text fill="#000000" font-family="sans-serif" font-size="13" lengthAdjust="spacing" textLength="149.4492" x="514.8398" y="1259.2773">CHUNK_DATA response</text></g><g class="message" data-participant-1="Client" data-participant-2="Session"><polygon fill="#181818" points="262.2275,1304.6406,252.2275,1308.6406,262.2275,1312.6406,258.2275,1308.6406" style="stroke:#181818;stroke-width:1;"/><line style="stroke:#181818;stroke-width:1;" x1="256.2275" x2="496.8398" y1="1308.6406" y2="1308.6406"/><text fill="#000000" font-family="sans-serif" font-size="13" lengthAdjust="spacing" textLength="141.4004" x="268.2275" y="1288.5879">{type: "CHUNK_DATA",</text><text fill="#000000" font-family="sans-serif" font-size="13" lengthAdjust="spacing" textLength="222.6123" x="268.2275" y="1303.8984">data: b"...", byte_offset: ..., size: ...}</text></g><g class="message" data-participant-1="Session" data-participant-2="Session"><line style="stroke:#181818;stroke-width:1;" x1="251.2275" x2="293.2275" y1="1337.9512" y2="1337.9512"/><line style="stroke:#181818;stroke-width:1;" x1="293.2275" x2="293.2275" y1="1337.9512" y2="1350.9512"/><line style="stroke:#181818;stroke-width:1;" x1="252.2275" x2="293.2275" y1="1350.9512" y2="1350.9512"/><polygon fill="#181818" points="262.2275,1346.9512,252.2275,1350.9512,262.2275,1354.9512,258.2275,1350.9512" style="stroke:#181818;stroke-width:1;"/><text fill="#000000" font-family="sans-serif" font-size="13" lengthAdjust="spacing" textLength="161.2559" x="258.2275" y="1333.209">decompress &amp; deserialize</text></g><g class="message" data-participant-1="Session" data-participant-2="User"><polygon fill="#181818" points="57.8462,1376.2617,47.8462,1380.2617,57.8462,1384.2617,53.8462,1380.2617" style="stroke:#181818;stroke-width:1;"/><line style="stroke:#181818;stroke-width:1;" x1="51.8462" x2="250.2275" y1="1380.2617" y2="1380.2617"/><text fill="#000000" font-family="sans-serif" font-size="13" lengthAdjust="spacing" textLength="95.3989" x="63.8462" y="1375.5195">numpy.ndarray</text></g><rect fill="#EEEEEE" height="3" style="stroke:#EEEEEE;stroke-width:1;" width="871.2246" x="0" y="1408.917"/><line style="stroke:#000000;stroke-width:1;" x1="0" x2="871.2246" y1="1408.917" y2="1408.917"/><line style="stroke:#000000;stroke-width:1;" x1="0" x2="871.2246" y1="1411.917" y2="1411.917"/><rect fill="#EEEEEE" height="23.3105" style="stroke:#000000;stroke-width:2;" width="72.7222" x="399.2512" y="1398.2617"/><text fill="#000000" font-family="sans-serif" font-size="13" font-weight="bold" lengthAdjust="spacing" textLength="54.4375" x="405.2512" y="1414.8301">Cleanup</text><g class="message" data-participant-1="User" data-participant-2="Session"><polygon fill="#181818" points="239.2275,1448.8828,249.2275,1452.8828,239.2275,1456.8828,243.2275,1452.8828" style="stroke:#181818;stroke-width:1;"/><line style="stroke:#181818;stroke-width:1;" x1="46.8462" x2="245.2275" y1="1452.8828" y2="1452.8828"/><text fill="#000000" font-family="sans-serif" font-size="13" lengthAdjust="spacing" textLength="106.4185" x="53.8462" y="1448.1406">with context exit</text></g><g class="message" data-participant-1="Session" data-participant-2="Client"><polygon fill="#181818" points="485.8398,1478.1934,495.8398,1482.1934,485.8398,1486.1934,489.8398,1482.1934" style="stroke:#181818;stroke-width:1;"/><line style="stroke:#181818;stroke-width:1;" x1="251.2275" x2="491.8398" y1="1482.1934" y2="1482.1934"/><text fill="#000000" font-family="sans-serif" font-size="13" lengthAdjust="spacing" textLength="122.9224" x="258.2275" y="1477.4512">FILE_CLOSE request</text></g><g class="message" data-participant-1="Client" data-participant-2="Server"><polygon fill="#181818" points="671.9019,1522.8145,681.9019,1526.8145,671.9019,1530.8145,675.9019,1526.8145" style="stroke:#181818;stroke-width:1;"/><line style="stroke:#181818;stroke-width:1;" x1="497.8398" x2="677.9019" y1="1526.8145" y2="1526.8145"/><text fill="#000000" font-family="sans-serif" font-size="13" lengthAdjust="spacing" textLength="124.6235" x="504.8398" y="1506.7617">{type: "FILE_CLOSE",</text><text fill="#000000" font-family="sans-serif" font-size="13" lengthAdjust="spacing" textLength="147.9258" x="504.8398" y="1522.0723">path: "p5test/test1.nc"}</text></g><g class="message" data-participant-1="Server" data-participant-2="Server"><line style="stroke:#181818;stroke-width:1;" x1="683.9019" x2="725.9019" y1="1556.125" y2="1556.125"/><line style="stroke:#181818;stroke-width:1;" x1="725.9019" x2="725.9019" y1="1556.125" y2="1569.125"/><line style="stroke:#181818;stroke-width:1;" x1="684.9019" x2="725.9019" y1="1569.125" y2="1569.125"/><polygon fill="#181818" points="694.9019,1565.125,684.9019,1569.125,694.9019,1573.125,690.9019,1569.125" style="stroke:#181818;stroke-width:1;"/><text fill="#000000" font-family="sans-serif" font-size="13" lengthAdjust="spacing" textLength="64.3779" x="690.9019" y="1551.3828">file.close()</text></g><g class="message" data-participant-1="Server" data-participant-2="Client"><polygon fill="#181818" points="508.8398,1594.4355,498.8398,1598.4355,508.8398,1602.4355,504.8398,1598.4355" style="stroke:#181818;stroke-width:1;"/><line style="stroke:#181818;stroke-width:1;" x1="502.8398" x2="682.9019" y1="1598.4355" y2="1598.4355"/><text fill="#000000" font-family="sans-serif" font-size="13" lengthAdjust="spacing" textLength="132.6724" x="514.8398" y="1593.6934">FILE_CLOSE response</text></g><g class="message" data-participant-1="Session" data-participant-2="Client"><polygon fill="#181818" points="485.8398,1623.7461,495.8398,1627.7461,485.8398,1631.7461,489.8398,1627.7461" style="stroke:#181818;stroke-width:1;"/><line style="stroke:#181818;stroke-width:1;" x1="251.2275" x2="491.8398" y1="1627.7461" y2="1627.7461"/><text fill="#000000" font-family="sans-serif" font-size="13" lengthAdjust="spacing" textLength="135.7446" x="258.2275" y="1623.0039">Close SSH connection</text></g><!--SRC=[bPNTRjem5CVlUGeh5rMGMDY7TeF494RJ5Or1LUXksYfoayEmcjYURLhIgj8UOa-u9zav8L1IGiTk4CV-s-VdynNDZHEnq5mwvbrOCAol4l0OjuoiXjxUrnyDP1EmLYXPICh_LLK_5I3TbVJFkE6Pk5LiCZbj5lhLLbL-3fboW5UPEp1uoXHsP0ixq7cpz4Hcer4WllcqzjnXDqevwmpNUA9OyfkDSfDqAuyTGc2naX9Y93jY2vqgdh2NlXeh-Se1hNLOk8HuWNmxqaQtoqgNWT8W_VFmstWQHYU3OTXatMuDQo7JtCqhY9ljs00dJoSY1QQDMkPrBw7xe_5PE4AadmkmhWRwqUKQEipRQBtMbIJ77KgYmqDj-daNoDXxQgnERP_N-KpSGK0W6zwrfi8n69sCaSDg9IrKGCetLKX8JIItaDiEkmo2uBh5k7C6hKUqdbeiSo93FHdRZwTGTYgHeV2NEPdXwkNttlcWztaONjU7Fef-W1CEiYZoFSUjzteAZZbgmErceGIfxkzbkPo4mx0_7On7Ux3M5mLRVDW3_jiMiwc8mHyf2SsAqQmd1saN1g8C7FURLvBz-VMRfVmXPxIIe1T65LzNK4XxQ3sjfQ-K4-xSSICvPR48T5rz9MNukgo8Lw6xhj714ZkREjREkOPsGXZjUBwGjxOjP0BBcheaneFBSYqcxCB7fYoJKZ73iBaFxqbGUDm8NfRevcwH19ZBYDxeMqXnuk1oYrwQtl5q0RNpwKiuZVgd5wElwopujlbA8ZRohKmWaDTYrU3ZxasEPQbcCuntqLTOJEBXkSLUXfpgC3ByFYh2x5kd30WvKtKZe228ZdlJta71VfOJ5yK7ntU9_G_AtIWd4AjCerlBZj30nX8ynIExpIeNcSu3z6SCN_LgFmKk5xg-9U-5czEdmc7nOG4AjtS8zuVZINZe52x4_pc6gJc2E5KM_BqJU0rHXh-6jKyNR7y0wOlz5m00]--></g></svg>